<svg width="34" height="33" viewBox="0 0 34 33" fill="none" xmlns="http://www.w3.org/2000/svg">
<path fill-rule="evenodd" clip-rule="evenodd" d="M33.9989 16.5483C34.0989 24.8362 27.1316 32.907 17.1409 32.9992C7.73271 33.0861 -0.00348424 25.7693 1.17726e-06 16.5402C0.00364502 7.01412 7.88417 0.115909 16.7602 0.00148759C26.203 -0.12047 34.0178 7.27173 33.9989 16.5483Z" fill="#231F20"/>
<path fill-rule="evenodd" clip-rule="evenodd" d="M6.72614 3.93648C7.29823 3.45419 7.93035 3.05448 8.57943 2.6803C10.5233 1.55962 12.6173 0.834638 14.8609 0.580265C19.8156 0.0187687 24.214 1.30001 27.9702 4.4989C30.8194 6.92544 32.5616 9.98945 33.2744 13.6027C33.4049 14.2647 33.474 14.9353 33.5191 15.6076C33.5347 15.835 33.5263 15.839 33.31 15.7537C32.1299 15.2888 30.977 14.761 29.7871 14.3184C28.8352 13.9644 27.8628 13.6768 26.8625 13.4848C26.6844 13.4507 26.6106 13.3769 26.5656 13.2066C25.9541 10.8887 23.7947 9.15313 21.3476 9.00225C18.8231 8.84646 16.6247 10.1086 15.556 12.3357C15.4823 12.4893 15.3964 12.5387 15.2234 12.5438C12.3063 12.6296 9.44872 13.0814 6.64534 13.8669C4.66198 14.4225 2.72568 15.1081 0.805058 15.8377C0.705407 15.8756 0.604489 15.9102 0.485668 15.9528C0.456517 15.7513 0.487727 15.5672 0.501669 15.3826C0.77464 11.7678 2.15312 8.60239 4.60495 5.87381C4.73312 5.73109 4.87127 5.59683 5.00482 5.45857C5.06455 5.55715 4.98296 5.6182 4.93638 5.68449C4.52479 6.26982 4.22013 6.89868 4.10479 7.60428C3.96744 8.4446 4.12761 9.20988 4.75308 9.83689C5.09338 10.1782 5.52003 10.3893 5.99991 10.488C6.91388 10.6761 7.79569 10.5482 8.65468 10.2197C9.46251 9.91071 10.1792 9.45364 10.7897 8.86338C11.6071 8.07289 12.2166 7.15428 12.3717 6.01283C12.5843 4.44892 11.6487 3.37252 10.1881 3.17121C9.06612 3.01665 8.04014 3.3147 7.06502 3.8319C6.96236 3.88681 6.87459 4.01184 6.72614 3.93648Z" fill="#F13E2D"/>
<path fill-rule="evenodd" clip-rule="evenodd" d="M6.13514 18.2018C7.69613 17.7921 9.27692 17.4773 10.8767 17.2484C11.9475 17.0952 13.0231 16.9896 14.102 16.9135C14.5179 16.8841 14.9353 16.8761 15.3514 16.847C15.4827 16.8378 15.5223 16.9048 15.5679 16.9991C16.307 18.528 17.4905 19.5918 19.1549 20.0887C21.1598 20.6871 22.9965 20.3121 24.6344 19.0421C25.0733 18.7021 25.4472 18.299 25.7528 17.8408C25.8304 17.7246 25.9055 17.6921 26.05 17.7215C28.1046 18.137 30.1026 18.7364 32.066 19.45C32.3686 19.5599 32.6659 19.6846 32.9733 19.78C33.1343 19.8298 33.1438 19.911 33.1108 20.0414C32.9441 20.702 32.7534 21.3553 32.5066 21.9921C32.1647 22.8745 31.7683 23.7317 31.2586 24.5365C31.2097 24.6137 31.1499 24.6844 31.0951 24.7581C30.9224 25.0065 30.6629 25.169 30.4397 25.365C29.8043 25.9225 29.1248 26.4271 28.4003 26.8737C27.1099 27.6696 25.7238 28.2504 24.2498 28.6389C23.3558 28.8745 22.4454 29.0259 21.5237 29.0871C19.0392 29.2525 16.6519 28.8584 14.3707 27.8763C13.2992 27.4149 12.2966 26.8398 11.3707 26.1462C10.435 25.4449 9.59124 24.6494 8.85186 23.7477C7.55275 22.1635 6.63054 20.399 6.08904 18.4452C6.06416 18.3568 6.02313 18.2654 6.13514 18.2018Z" fill="#FEFEFE"/>
<path fill-rule="evenodd" clip-rule="evenodd" d="M6.1352 18.2018C6.08735 18.262 6.10811 18.3229 6.12569 18.3879C6.49007 19.7385 7.04584 21.0122 7.79568 22.2009C8.7106 23.6512 9.85223 24.9103 11.2302 25.9685C13.0876 27.3949 15.1783 28.3274 17.4926 28.79C18.2446 28.9403 19.0073 29.0191 19.7766 29.053C21.7408 29.1397 23.6437 28.8524 25.4897 28.2062C26.6156 27.812 27.6731 27.2865 28.67 26.6401C29.4566 26.13 30.1659 25.5304 30.8729 24.9256C30.9431 24.8655 31.0207 24.8137 31.0949 24.758C30.9605 25.0956 30.7243 25.3735 30.5174 25.6666C29.8609 26.5972 29.0843 27.4297 28.237 28.1977C27.2758 29.069 26.2169 29.8138 25.0681 30.439C23.7335 31.1652 22.3227 31.6968 20.8352 32.0396C19.9528 32.2429 19.0605 32.374 18.1543 32.4355C17.7652 32.4618 17.375 32.4701 16.9872 32.4799C16.4514 32.4935 15.9118 32.4535 15.3771 32.4037C13.8953 32.2656 12.4574 31.9343 11.0674 31.4163C9.283 30.7513 7.66181 29.8201 6.21362 28.6062C3.49642 26.3282 1.7149 23.4969 0.860182 20.1124C0.815663 19.9358 0.866994 19.8751 1.02859 19.8154C2.62285 19.227 4.23707 18.6989 5.88393 18.2661C5.96758 18.2441 6.05139 18.2232 6.1352 18.2018Z" fill="#A09D9D"/>
<path fill-rule="evenodd" clip-rule="evenodd" d="M1.68375 15.8444C2.48 15.5494 3.27848 15.2606 4.08424 14.9901C4.99679 14.6837 5.91234 14.386 6.84548 14.148C8.00708 13.852 9.17168 13.5655 10.3575 13.3697C11.2772 13.2179 12.1991 13.0864 13.1294 13.0109C13.7117 12.9637 14.2932 12.9109 14.8778 12.8903C15.1122 12.8822 15.3472 12.8574 15.5825 12.8617C15.6935 12.8637 15.7314 12.8074 15.7669 12.7199C16.2192 11.6062 16.9768 10.736 18.0213 10.1064C18.6981 9.69837 19.4372 9.45045 20.2317 9.36095C21.7195 9.19347 23.065 9.54688 24.2534 10.4235C25.3098 11.2028 25.9864 12.2338 26.2811 13.4915C26.3221 13.6662 26.4025 13.7343 26.5742 13.766C28.3167 14.0873 29.9558 14.7069 31.5693 15.4019C32.1963 15.672 32.8307 15.9265 33.4655 16.1792C33.5829 16.2259 33.6423 16.2891 33.6462 16.4065C33.6816 17.4274 33.6516 18.4429 33.405 19.443C33.3674 19.5951 33.2828 19.5629 33.1835 19.5245C32.1141 19.1123 31.0312 18.7358 29.9354 18.3955C28.591 17.9781 27.2282 17.6282 25.8448 17.3539C25.7062 17.3263 25.6621 17.3923 25.6094 17.4761C25.1694 18.1723 24.5986 18.7463 23.8895 19.1854C23.1228 19.6603 22.2884 19.9385 21.3765 20.0145C20.0707 20.1234 18.8841 19.8141 17.8016 19.1109C16.8673 18.5041 16.2071 17.6773 15.7791 16.6753C15.7184 16.5329 15.6406 16.5072 15.5075 16.5154C14.8371 16.5561 14.1649 16.5777 13.4961 16.6369C12.6146 16.7147 11.7349 16.8079 10.8577 16.9309C9.65425 17.0996 8.46335 17.3266 7.27831 17.5839C6.83455 17.6804 6.40521 17.8388 5.96257 17.9412C5.40743 18.0698 4.86624 18.2425 4.31824 18.3935C4.22176 18.4201 4.13637 18.4828 4.03022 18.4768C3.82696 18.5468 3.64477 18.4621 3.46923 18.3887C2.40618 17.9446 1.79132 17.1619 1.61942 16.0511C1.60786 15.9713 1.59344 15.8931 1.68375 15.8444Z" fill="#58585A"/>
<path fill-rule="evenodd" clip-rule="evenodd" d="M6.72608 3.93647C6.81115 3.95231 6.86137 3.8868 6.92253 3.8525C7.81511 3.35175 8.76314 3.05216 9.80702 3.07831C11.0431 3.10937 12.0255 3.77176 12.342 4.80248C12.525 5.39842 12.4892 5.9956 12.3053 6.58232C11.8723 7.96291 10.9491 8.97579 9.72195 9.74245C8.75902 10.3439 7.71023 10.6823 6.548 10.6224C5.22275 10.5543 4.24288 9.75706 4.04421 8.57132C3.93268 7.90555 4.06813 7.26916 4.3278 6.65322C4.48147 6.28827 4.68378 5.949 4.91699 5.62634C4.95374 5.57575 5.01949 5.53622 5.00492 5.45886C5.17047 5.28769 5.33619 5.11667 5.50143 4.94535C5.86977 4.56333 6.30529 4.25836 6.72608 3.93647Z" fill="#FEFEFE"/>
<path fill-rule="evenodd" clip-rule="evenodd" d="M1.68372 15.8443C1.61021 16.0358 1.68847 16.2225 1.73821 16.3951C2.04477 17.461 2.75485 18.1511 3.85069 18.4622C3.90741 18.4782 3.97078 18.4725 4.03098 18.4768C3.4871 18.6553 2.94195 18.8302 2.39965 19.0129C1.87525 19.1895 1.34769 19.3583 0.839295 19.5761C0.71588 19.6292 0.687046 19.5746 0.660113 19.4778C0.569334 19.1512 0.527509 18.8162 0.468732 18.4839C0.354347 17.8361 0.399182 17.1831 0.386825 16.5319C0.384132 16.3867 0.432452 16.3086 0.579632 16.2573C0.950828 16.1279 1.30491 15.9551 1.68372 15.8443Z" fill="#363638"/>
<path fill-rule="evenodd" clip-rule="evenodd" d="M21.0553 10.6193C23.2666 10.5931 25.1331 12.3745 25.1102 14.5909C25.0882 16.7511 23.3129 18.5116 21.0264 18.506C18.7479 18.5005 16.9788 16.7059 16.9799 14.5542C16.9808 12.3951 18.7969 10.5866 21.0553 10.6193Z" fill="#231F20"/>
<path fill-rule="evenodd" clip-rule="evenodd" d="M17.3248 14.5309C17.35 12.5325 19.0328 10.9229 21.0723 10.9466C23.1744 10.9711 24.7874 12.6056 24.7584 14.6824C24.7312 16.6259 23.011 18.1935 20.9365 18.1649C18.9504 18.1375 17.3003 16.4772 17.3248 14.5309Z" fill="#FEFEFE"/>
<path fill-rule="evenodd" clip-rule="evenodd" d="M21.0505 11.779C22.6392 11.7875 23.9192 13.0397 23.9062 14.573C23.8934 16.1074 22.6144 17.3402 21.0398 17.3365C19.4464 17.3326 18.1736 16.078 18.1862 14.5234C18.198 13.0075 19.4891 11.7706 21.0505 11.779Z" fill="#231F20"/>
<path fill-rule="evenodd" clip-rule="evenodd" d="M23.6804 14.6018C23.6085 16.0945 22.4014 17.1779 20.8883 17.1077C19.4886 17.0428 18.3379 15.82 18.41 14.4742C18.4867 13.0428 19.713 11.9324 21.1411 12.0013C22.5833 12.071 23.745 13.2608 23.6804 14.6018Z" fill="#FEFEFE"/>
</svg>
