<svg width="110" height="100" viewBox="0 0 110 100" fill="none" xmlns="http://www.w3.org/2000/svg">
<path d="M76.4806 20.2326C82.238 22.7826 87.0227 25.9418 90.8346 29.71C94.9971 33.8275 97.5761 38.3023 98.5715 43.1344C82.6339 43.4755 66.832 43.3902 51.1659 42.8786C19.845 41.8472 4.88582 39.1997 6.28842 34.9361C7.92856 29.974 14.6588 25.3652 26.479 21.1097C32.3835 18.9819 38.124 17.3495 43.7005 16.2126C48.2702 14.97 53.5243 14.7223 59.4627 15.4695C65.3107 16.2004 70.9833 17.7881 76.4806 20.2326Z" fill="#6F4E25"/>
<path d="M55.9501 15.0919L60.2257 15.4208C56.6287 16.3466 53.241 17.7191 50.0625 19.5382C47.6759 20.9107 45.2043 22.673 42.648 24.8251C41.5056 23.8912 40.103 22.8476 38.4402 21.6944L33.9779 18.6733C40.923 16.6268 46.573 15.4451 50.9279 15.1284C52.5793 15.0147 54.2534 15.0025 55.9501 15.0919Z" fill="#4A311C"/>
<path d="M92.1071 31.0381C95.5231 34.8063 97.6779 38.8385 98.5715 43.1347C94.8727 43.2159 90.2294 43.2687 84.6417 43.293C87.7749 39.8415 90.2634 35.7565 92.1071 31.0381Z" fill="#4A311C"/>
<path d="M43.1915 14.6899C44.1529 16.6715 44.6902 18.0724 44.8033 18.8926L37.7281 32.7312L15.5354 31.0988C15.0377 30.7658 13.7539 29.3527 11.6839 26.8595C9.50082 24.2283 8.3301 22.5756 8.17174 21.9015C7.85503 20.6427 12.8772 18.1739 23.2384 14.495C26.7109 13.2605 30.274 12.3225 33.9275 11.681C36.4386 11.2424 38.4238 11.011 39.8829 10.9866C40.8783 10.9704 41.9812 12.2048 43.1915 14.6899Z" fill="#6F4E25"/>
<path d="M43.1914 14.6899C44.1528 16.6715 44.6901 18.0724 44.8032 18.8926L39.8828 28.5041C37.9712 26.555 34.5439 23.607 29.6009 19.6601C25.3139 16.2329 23.193 14.5112 23.2383 14.495C26.7108 13.2605 30.2739 12.3225 33.9274 11.681C36.4385 11.2424 38.4236 11.011 39.8828 10.9866C40.8782 10.9704 41.981 12.2048 43.1914 14.6899Z" fill="#4A311C"/>
<path d="M91.4112 23.2294C94.8159 25.2273 97.5928 27.1155 99.7419 28.894C102.027 30.7781 102.983 32.0369 102.609 32.6704C102.27 33.247 100.505 34.5626 97.3157 36.6173C94.386 38.5095 92.5932 39.5897 91.9372 39.8577L68.0647 29.3204L72.6627 21.1707C72.9455 20.5779 73.5224 19.8023 74.3934 18.844C75.5245 17.5933 76.4237 17.0289 77.0911 17.1507C78.2449 17.3619 80.0151 17.9303 82.4017 18.8562C85.5576 20.0906 88.5607 21.5484 91.4112 23.2294Z" fill="#6F4E25"/>
<path d="M99.9966 29.1132C102.1 30.8836 102.971 32.0693 102.609 32.6703C102.44 32.9545 101.671 33.5961 100.302 34.595L96.5523 37.2019L92.7008 36.605C90.9023 36.3532 89.1717 36.2274 87.5089 36.2274C88.7645 34.8224 89.9239 32.4429 90.9871 29.0888C91.8581 26.3113 92.271 24.5206 92.2257 23.7166C95.4381 25.6576 98.0284 27.4564 99.9966 29.1132Z" fill="#4A311C"/>
<path d="M39.0339 15.3477C39.7125 16.2248 40.2385 17.1303 40.6118 18.0642L41.1378 19.1362C41.5337 20.0133 41.8221 20.866 42.0031 21.6944C42.5573 24.3501 41.9296 26.2707 40.1197 27.4564C38.2986 28.6421 34.3962 29.503 28.4126 30.039C25.4151 30.3151 22.5986 30.4694 19.963 30.5019C18.8885 29.6492 17.4633 28.2117 15.6874 26.1895C13.7418 23.9805 12.82 22.6284 12.9218 22.133C13.0236 21.5807 16.5979 20.1027 23.6449 17.6988C30.7031 15.2949 35.1937 14.028 37.1166 13.898C37.6256 13.8574 38.2647 14.3406 39.0339 15.3477Z" fill="#0D131A"/>
<path d="M78.1768 20.4641C79.2287 20.7402 82.7692 22.6243 88.7981 26.1164C94.9627 29.6817 98.0168 31.7039 97.9602 32.183C97.9036 32.654 96.6085 33.791 94.0748 35.5939C91.7333 37.2588 89.9462 38.3957 88.7132 39.0048L72.442 27.6879C73.279 25.9906 74.1047 24.5328 74.9191 23.3146C76.3104 21.2193 77.3963 20.2692 78.1768 20.4641Z" fill="#0D131A"/>
<path d="M79.0421 25.4708C82.0622 25.349 84.9409 26.2383 87.6782 28.1386C88.7302 28.8695 89.6125 29.6614 90.3251 30.5141C90.9811 31.3018 91.3431 31.9556 91.411 32.4754C91.5693 33.6529 91.2696 34.6762 90.5117 35.5452C89.5729 36.6334 88.0063 37.3237 85.8119 37.6161L75.3772 33.9372L73.443 29.1132C73.6805 28.2848 74.1104 27.5823 74.7325 27.0057C75.7505 26.0636 77.187 25.552 79.0421 25.4708Z" fill="#DCDBD6"/>
<path d="M91.4109 32.4753C91.5693 33.6529 91.2695 34.6761 90.5117 35.5451C89.5728 36.6334 88.0062 37.3237 85.8118 37.616L82.2827 36.3735L85.3707 26.8716L88.3229 29.1375C90.3024 30.7617 91.3317 31.8743 91.4109 32.4753Z" fill="#B4B4B0"/>
<path d="M79.0254 34.3391C77.1703 33.3646 76.0901 32.2154 75.7847 30.8917C75.5132 29.641 76.0166 28.6218 77.2948 27.834C78.1884 27.2818 79.1159 26.961 80.0773 26.8716L88.7983 32.39C89.0472 33.4458 88.5947 34.3107 87.441 34.9847C86.3777 35.5938 85.1391 35.8497 83.7252 35.7522C82.1756 35.6466 80.609 35.1756 79.0254 34.3391Z" fill="#DCDBD6"/>
<path d="M88.7988 32.39C89.0476 33.4458 88.5951 34.3107 87.4414 34.9848C86.3781 35.5939 85.1395 35.8497 83.7256 35.7522L82.4362 35.5573L83.03 31.5617L83.3693 29.174L88.7988 32.39Z" fill="#B4B4B0"/>
<path d="M109.277 19.8429C109.085 20.9636 108.599 22.0275 107.818 23.0345C107.094 23.9766 106.223 24.7278 105.205 25.2882C103.475 26.2384 100.873 27.5296 97.4005 29.162C94.1994 30.6644 91.9428 31.6755 90.6307 32.1953C89.4656 32.6663 88.1309 32.8572 86.6265 32.7678C85.1334 32.6866 83.6063 32.3415 82.0454 31.7324C80.5862 31.1639 79.5739 30.2543 79.0083 29.0036C78.5106 27.891 78.4767 26.8677 78.9065 25.9338C79.3363 24.9999 80.524 22.9777 82.4696 19.8673C84.483 16.6269 85.7725 14.7265 86.338 14.1662C87.2203 13.2728 88.425 12.5013 89.952 11.8516C91.5016 11.2019 93.1644 10.7634 94.9403 10.536C99.0915 10.0081 102.558 10.6862 105.341 12.5703C108.429 14.6575 109.741 17.0817 109.277 19.8429Z" fill="#DCDBD6"/>
<path d="M94.3636 27.0301C97.3951 27.5661 100.308 27.3509 103.102 26.3844C101.111 27.3996 98.7581 28.5366 96.0434 29.7954L90.6309 32.1952C89.4658 32.6662 88.1311 32.8571 86.6267 32.7677C85.1336 32.6865 83.6066 32.3414 82.0456 31.7323C81.9778 31.7079 83.0919 30.7374 85.3881 28.8208L89.07 25.751L89.4772 25.4586C89.6468 25.418 89.89 25.4992 90.2067 25.7023C91.0325 26.2383 92.4181 26.6809 94.3636 27.0301Z" fill="#B4B4B0"/>
<path d="M27.005 19.1242C30.4323 18.0441 33.9557 17.9791 37.5754 18.9293L39.5944 25.7755L24.5787 30.9406C22.4522 30.2584 21.1005 29.2717 20.5236 27.9804C20.1164 27.0465 20.1164 25.9298 20.5236 24.6304C21.3154 22.0803 23.4758 20.2449 27.005 19.1242Z" fill="#DCDBD6"/>
<path d="M28.8704 18.6489C31.8001 18.0804 34.7014 18.1738 37.5745 18.9291L39.5935 25.7753C37.1842 25.5073 34.6505 25.1459 31.9924 24.6911C26.6761 23.7897 23.3788 22.8882 22.1006 21.9868C23.6729 20.3381 25.9295 19.2255 28.8704 18.6489Z" fill="#B4B4B0"/>
<path d="M35.8112 21.6215C36.5917 22.6285 36.6256 23.7615 35.913 25.0202C35.1551 26.344 33.8656 27.3064 32.0445 27.9073C30.5175 28.4027 28.9509 28.5733 27.3447 28.419C25.8516 28.2809 24.5451 27.6962 23.4253 26.6648C22.2263 25.5603 21.9322 24.4802 22.543 23.4244L33.7073 20.1841C34.5443 20.4114 35.2456 20.8906 35.8112 21.6215Z" fill="#DCDBD6"/>
<path d="M33.7068 20.1841C34.5439 20.4114 35.2452 20.8906 35.8107 21.6215C36.5912 22.6285 36.6251 23.7615 35.9125 25.0202C35.1547 26.3521 33.8652 27.3104 32.0441 27.8952L29.5669 25.5562L28.3962 24.5208L33.7068 20.1841Z" fill="#B4B4B0"/>
<path d="M33.7402 23.2049C32.8014 24.3012 31.4949 25.0159 29.8209 25.3489C27.9658 25.7143 26.2691 25.828 24.7308 25.69C23.1359 25.5357 21.8238 25.1215 20.7945 24.4474C19.4145 23.546 17.6216 22.2872 15.4159 20.671C12.7012 18.6895 10.6369 17.0815 9.22302 15.847C8.35205 15.0836 7.67337 14.1091 7.18699 12.9234C6.66667 11.6484 6.46872 10.3571 6.59315 9.04957C6.89855 5.8092 8.99114 3.3769 12.8709 1.75265C16.4792 0.233982 20.195 -0.0218363 24.0182 0.985196C27.6604 1.9435 30.3808 3.74235 32.1793 6.38175C32.6656 7.09642 33.2708 9.20794 33.9947 12.7163C34.7299 16.2572 35.0636 18.7463 34.9958 20.1838C34.9392 21.2883 34.5207 22.2953 33.7402 23.2049Z" fill="#DCDBD6"/>
<path d="M34.4358 14.9823C34.8543 17.4186 35.0409 19.1525 34.9957 20.1839C34.9391 21.2884 34.5206 22.2954 33.7401 23.205C32.8013 24.3014 31.4948 25.016 29.8208 25.349L29.1251 25.5683C28.9555 25.617 28.831 25.5927 28.7518 25.4952C26.0937 22.0843 24.5497 20.0377 24.1199 19.3555C23.8145 18.8764 23.6618 18.6003 23.6618 18.5272C23.6505 18.381 23.8484 18.2673 24.2556 18.1861C27.0721 17.5689 29.3118 16.4319 30.9745 14.7752C32.7278 13.0129 33.4291 11.0354 33.0784 8.84262C33.5761 10.6455 34.0286 12.6921 34.4358 14.9823Z" fill="#B4B4B0"/>
<path d="M60.7005 85.3932C61.481 85.2877 62.3407 85.7059 63.2795 86.648C64.2183 87.5657 64.7387 88.4874 64.8405 89.4133C64.3315 89.8762 62.5952 89.9493 59.6316 89.6325C56.7925 89.3158 55.175 88.9828 54.7791 88.6336C54.4624 88.3412 55.1015 87.7646 56.6963 86.9038C58.2686 86.0429 59.6033 85.5394 60.7005 85.3932Z" fill="#DBDCDC"/>
<path d="M65.8088 22.8884C67.7882 23.8954 70.1353 25.54 72.85 27.822C75.2254 29.8117 77.2445 31.3751 78.9072 32.512C81.4749 34.2743 83.9125 35.5697 86.22 36.398C92.4412 38.6314 96.7564 40.7876 99.1657 42.8666C102.186 45.4816 102.695 48.2835 100.693 51.2721L6.69601 50.2244C6.00602 49.9808 5.22555 49.4529 4.35458 48.6408C3.43836 47.7799 2.64657 46.8054 1.97921 45.7171C0.293828 42.9316 0.0110459 40.483 1.13086 38.3715C2.09232 36.5605 4.02089 34.9078 6.91658 33.4135C10.1629 31.7486 13.7882 30.7741 17.7924 30.4898L21.559 30.2706C22.9277 30.1812 24.0871 30.0432 25.0373 29.8564C27.5484 29.361 30.0595 28.2321 32.5706 26.4698C36.0092 24.0497 39.4648 22.3118 42.9374 21.256C46.4665 20.1759 50.2162 19.7333 54.1864 19.9282C58.5073 20.1475 62.3814 21.1342 65.8088 22.8884Z" fill="#EEEEEF"/>
<path d="M1.13086 38.3716L1.40233 37.9209C1.85478 42.2008 4.33761 45.2706 8.85081 47.1303C10.819 47.9425 13.3527 48.6246 16.452 49.1769C18.7821 49.5911 22.0115 50.0134 26.1401 50.4438L6.69601 50.2245C6.00602 49.9809 5.22554 49.453 4.35458 48.6409C3.43836 47.78 2.64657 46.8055 1.97921 45.7172C0.293828 42.9317 0.0110459 40.4831 1.13086 38.3716Z" fill="#C8C9CA"/>
<path d="M54.1858 19.9281C58.5067 20.1474 62.3808 21.1341 65.8081 22.8883C67.7876 23.8954 70.1347 25.5399 72.8494 27.822C74.1841 28.9427 75.5585 30.035 76.9724 31.0989C78.9971 32.6338 80.6768 33.783 82.0115 34.5463C78.1657 35.3422 74.5065 37.4375 71.0339 40.8322C68.2174 43.5772 65.7516 46.919 63.6364 50.8578L55.085 50.7604C54.8136 45.0918 52.1158 39.9064 46.9918 35.2042C44.7069 33.1089 42.1845 31.3913 39.4246 30.0512C36.6533 28.695 33.9273 27.8585 31.2465 27.5418C34.1988 25.2922 37.8862 23.4243 42.309 21.9381C46.8108 20.4276 50.7698 19.7576 54.1858 19.9281Z" fill="#C8C9CA"/>
<path d="M92.5312 38.9196C96.5354 40.7388 99.2444 42.5742 100.658 44.4258C102.298 46.5698 102.31 48.8519 100.692 51.272L91.4962 48.86C92.6952 48.1535 93.6397 47.2114 94.3297 46.0338C95.6984 43.6706 95.0989 41.2992 92.5312 38.9196Z" fill="#C8C9CA"/>
<path d="M68.1664 44.4502C63.7097 46.0907 58.4839 46.7363 52.4889 46.3871C46.494 46.046 41.4831 44.8116 37.4563 42.6838C33.4294 40.5561 31.5631 38.1562 31.8572 35.4844C32.1513 32.8206 34.5266 30.6644 38.9833 29.0158C43.4286 27.3753 48.6488 26.7256 54.6437 27.0667C60.6387 27.4159 65.6496 28.6544 69.6764 30.7822C73.7032 32.9099 75.5696 35.3098 75.2755 37.9816C74.9814 40.6535 72.6117 42.8097 68.1664 44.4502Z" fill="#0D131A"/>
<path d="M59.3608 83.8949C60.4354 83.0584 62.0868 82.5183 64.3152 82.2747C66.5435 82.0229 71.0454 82.5183 77.8208 83.7609C81.2029 84.3862 84.3644 85.0318 87.3053 85.6978C87.7125 86.6236 87.2488 87.6834 85.914 88.8772C84.6585 90.0061 83.0127 90.9319 80.9767 91.6547C78.0697 92.6861 74.8403 93.1449 71.2886 93.0312C67.5898 92.9175 64.2982 92.1948 61.4138 90.8629C59.9094 90.1645 58.9027 89.0965 58.3937 87.6591C57.9752 86.449 57.9865 85.5881 58.4276 85.0765C58.5181 84.7111 58.8292 84.3172 59.3608 83.8949Z" fill="#3396CD"/>
<path d="M59.3611 83.8949C60.4357 83.0584 62.0871 82.5183 64.3154 82.2747C64.8697 82.2097 65.6615 82.1975 66.6908 82.2381C68.2857 83.1396 69.6204 84.2968 70.695 85.7099C67.5504 85.1902 64.9715 85.2186 62.9581 85.7952C61.2387 86.2987 59.8644 87.2367 58.8351 88.6092C58.4279 87.9189 58.196 87.2042 58.1395 86.4652C58.0942 85.8074 58.1904 85.3445 58.4279 85.0765C58.5184 84.711 58.8294 84.3172 59.3611 83.8949Z" fill="#2880AE"/>
<path d="M75.886 92.7512C73.488 93.0517 71.305 93.0964 69.3368 92.8852C72.6171 91.2854 73.1148 88.9586 70.8299 85.9051L78.9231 85.6492C82.0224 85.5761 84.7201 85.5721 87.0163 85.637L87.3048 85.698C87.712 86.6238 87.2482 87.6836 85.9135 88.8774C84.6579 90.0063 83.0121 90.9321 80.9761 91.6549C79.6301 92.1259 77.9334 92.4914 75.886 92.7512Z" fill="#2880AE"/>
<path d="M7.61203 70.6898C5.39502 68.2372 4.12815 65.0131 3.81144 61.0174C3.60783 58.5973 3.71529 56.5183 4.13381 54.7803L11.6332 56.0107L14.1952 71.3354L7.61203 70.6898Z" fill="#C8C9CA"/>
<path d="M91.8864 71.1771C93.2437 73.4348 93.6509 75.8914 93.108 78.5471C92.5537 81.2271 91.5357 83.1965 90.0539 84.4553C89.2734 85.1212 88.0801 85.7019 86.4739 86.1973C83.861 87.0094 81.0841 87.4155 78.1431 87.4155C72.8155 87.4236 68.0591 86.0227 63.874 83.2127C65.4236 81.0768 67.2164 78.8151 69.2525 76.4274C73.3245 71.6522 76.5878 68.6311 79.0424 67.3642C81.5082 66.0972 83.8101 65.7196 85.9479 66.2312C87.0225 66.483 87.8482 66.8606 88.4251 67.3642C89.9747 68.6554 91.1285 69.9264 91.8864 71.1771Z" fill="#3396CD"/>
<path d="M88.4249 67.3642C89.9746 68.6554 91.1283 69.9264 91.8862 71.1771C93.2435 73.4348 93.6507 75.8914 93.1078 78.5471C92.5422 81.2921 91.6656 83.2005 90.4779 84.2725C89.9915 84.7111 89.3751 85.0887 88.6285 85.4055L86.4737 86.1973C84.8336 86.7739 83.2331 87.1678 81.6721 87.3789L76.0391 87.5129C77.4982 86.847 78.1656 86.047 78.0412 85.1131C77.9281 84.2604 77.2098 83.4888 75.8864 82.7985C74.5403 82.1001 72.9624 81.6981 71.1526 81.5925C69.1279 81.4788 67.2163 81.7834 65.4178 82.5062C68.1664 78.9572 70.3891 76.1676 72.0858 74.1373C75.2077 70.4096 77.5265 68.1519 79.0422 67.3642C81.5081 66.0972 83.8099 65.7196 85.9478 66.2312C87.0223 66.483 87.8481 66.8606 88.4249 67.3642Z" fill="#2880AE"/>
<path d="M62.245 90.7412C63.444 90.0834 64.8862 89.8032 66.5715 89.9007C68.6302 90.0144 70.5475 90.7087 72.3233 91.9838C73.002 92.471 72.3742 93.2425 70.44 94.2983C68.6528 95.2729 67.3746 95.7764 66.6055 95.8089C66.0625 95.8332 65.1689 95.1551 63.9247 93.7745C62.6578 92.3695 62.0979 91.3584 62.245 90.7412Z" fill="white"/>
<path d="M72.3234 91.9837C72.8776 92.3817 72.3347 93.0882 70.6946 94.1034C69.3372 94.948 67.9629 95.618 66.5716 96.1134C67.3747 95.3743 68.0307 94.4526 68.5398 93.3481C69.0261 92.2517 69.2411 91.265 69.1845 90.3879C70.2817 90.7371 71.328 91.2691 72.3234 91.9837Z" fill="#DBDCDC"/>
<path d="M77.4821 90.5219C80.0385 89.8478 82.3007 89.7747 84.2689 90.3026C85.3774 90.6031 86.4124 91.736 87.3739 93.7013C87.7697 94.5216 87.996 95.22 88.0525 95.7966C88.1091 96.4301 87.9338 96.7752 87.5266 96.8321C86.0222 97.0513 83.4771 96.56 79.8914 95.3581C76.1927 94.1318 74.2754 93.0395 74.1397 92.0811C74.117 91.9268 74.4224 91.6954 75.0559 91.3868C75.7346 91.0538 76.5433 90.7655 77.4821 90.5219Z" fill="white"/>
<path d="M84.2688 90.3025C85.2189 90.5623 86.1578 91.5085 87.0853 93.1408C87.9789 94.7407 88.2673 95.8655 87.9506 96.5152C87.2832 95.2402 86.3557 93.9854 85.168 92.751C83.8672 91.411 82.606 90.4852 81.3844 89.9736C82.459 89.9573 83.4204 90.067 84.2688 90.3025Z" fill="#DBDCDC"/>
<path d="M65.7573 41.3926C68.8906 40.5073 71.2264 39.3907 72.7647 38.0425C73.6017 37.3116 74.7724 37.1167 76.2768 37.4578C77.6568 37.7745 78.6692 38.343 79.3139 39.1633C79.8342 39.8373 80.1509 40.9215 80.2641 42.4158C80.3432 43.5853 80.298 44.6938 80.1283 45.7415C80.0378 46.2775 80.4111 50.2894 81.2481 57.7771C81.9042 65.3705 81.7458 69.9346 80.7731 71.4695C79.3705 73.6704 77.3797 75.8265 74.8007 77.9381C72.1199 80.1308 69.5636 81.6413 67.1317 82.4697C63.1049 83.8341 59.078 84.7883 55.0512 85.3324C48.6264 86.2014 42.5183 85.9943 36.727 84.7112C33.3109 84.1346 29.7309 83.0382 25.9869 81.4221C18.4988 78.1898 13.9178 73.9912 12.2437 68.8261C10.5809 63.661 12.3116 56.8838 17.4356 48.4946C20.0032 44.2959 22.7349 40.6129 25.6306 37.4456C25.7211 36.9584 26.3545 36.2518 27.5309 35.326C28.8317 34.2946 29.9176 33.8236 30.7885 33.9129C31.5916 33.986 32.7284 34.5423 34.1989 35.5818L38.3049 38.5907C39.7527 39.5734 41.9584 40.4911 44.922 41.3438C48.5077 42.3752 51.9576 42.8706 55.2718 42.83C59.0045 42.7894 62.4997 42.3103 65.7573 41.3926Z" fill="#F0E9A5"/>
<path d="M27.7514 35.1432C28.1699 35.0133 28.5885 34.9361 29.007 34.9118L30.7376 35.0092C29.6857 35.6914 28.8995 36.4304 28.3792 37.2263C27.9267 37.941 27.6327 38.7897 27.4969 39.7723C26.7617 38.9115 26.1735 38.0466 25.7324 37.1776C25.8794 36.9258 26.1339 36.6132 26.4959 36.2396C26.8805 35.8498 27.299 35.4843 27.7514 35.1432Z" fill="#C9C48B"/>
<path d="M20.7444 68.2658C18.1768 68.0465 15.315 68.1278 12.1592 68.5094C11.7407 67.0964 11.5823 65.5493 11.6841 63.8682C13.0867 64.3067 14.5459 64.5666 16.0616 64.6478C17.5547 64.729 19.0308 64.6275 20.4899 64.3433C20.5126 65.6508 20.5974 66.9583 20.7444 68.2658Z" fill="#C9C48B"/>
<path d="M62.4322 43.5976C62.3983 43.3945 62.1437 43.1671 61.6687 42.9154C61.3067 42.7286 60.9278 42.5743 60.5319 42.4525C63.2127 42.087 65.6446 41.5104 67.8277 40.7226C69.9655 39.943 71.6113 39.0497 72.765 38.0426C73.6021 37.3117 74.7728 37.1168 76.2772 37.4579C77.6572 37.7746 78.6695 38.3431 79.3143 39.1634C79.8346 39.8374 80.1513 40.9216 80.2644 42.4159C80.3436 43.5854 80.2984 44.6939 80.1287 45.7416C80.0382 46.2776 80.4115 50.2894 81.2485 57.7772C81.9046 65.3706 81.7462 69.9347 80.7734 71.4696C79.3708 73.6705 77.3801 75.8266 74.8011 77.9382C72.1203 80.1309 69.5639 81.6414 67.132 82.4698C62.8451 83.9235 58.7051 84.9387 54.7122 85.5153C48.0725 86.4573 42.0775 86.1893 36.7273 84.7113C35.1098 84.4352 33.1869 83.9479 30.9586 83.2495C32.7118 82.9408 34.2332 82.2059 35.5227 81.0445C36.0317 80.5816 36.716 79.7573 37.5757 78.5716C43.367 77.5077 48.3666 75.0105 52.5744 71.0798C52.6762 70.9905 52.761 70.8037 52.8289 70.5194L52.8968 70.1296C53.3266 70.1377 53.5811 70.0971 53.6603 70.0078C57.1668 66.3857 59.6949 62.0977 61.2445 57.1438C61.2897 57.0138 61.2615 56.8149 61.1597 56.5469L61.007 56.1692C61.3916 56.0474 61.5952 55.9459 61.6178 55.8647C62.7489 51.6741 63.0204 47.5851 62.4322 43.5976Z" fill="#C9C48B"/>
<path d="M13.8219 96.3326C9.3313 96.3895 6.02841 95.1388 3.9132 92.5806C1.42472 89.5677 1.01185 85.0644 2.67461 79.071L36.7272 76.4519C37.8131 78.8152 37.8527 82.0271 36.846 86.0877C35.8506 90.0834 34.4254 92.6821 32.5703 93.8841C30.8397 95.0129 27.8875 95.7438 23.7136 96.0768L13.8219 96.3326Z" fill="#3396CD"/>
<path d="M23.713 96.0768L13.8213 96.3326C18.2553 93.5389 18.2949 90.4123 13.9401 86.9526L36.7266 76.4519C37.8125 78.8152 37.8521 82.0271 36.8454 86.0877C35.85 90.0834 34.4248 92.6821 32.5697 93.8841C30.8391 95.0129 27.8869 95.7439 23.713 96.0768Z" fill="#2880AE"/>
<path d="M36.0484 94.1764C36.2746 95.9712 36.0315 97.031 35.3188 97.3559C34.5836 97.697 33.2036 97.701 31.1789 97.3681C29.109 97.027 27.4971 96.5113 26.3433 95.821C26.0153 95.6261 25.9474 95.2322 26.1397 94.6393C26.3433 94.0059 26.7675 93.4049 27.4123 92.8364C29.1768 91.2934 31.5918 90.7858 34.6571 91.3137C35.3584 91.4355 35.8222 92.3897 36.0484 94.1764Z" fill="white"/>
<path d="M4.69382 93.5672C4.92004 92.6739 5.91544 92.1338 7.68 91.947C8.87899 91.809 11.0225 91.8252 14.1105 91.9958C16.7799 92.142 19.2005 92.5643 21.3723 93.2627C23.6572 94.0017 24.7657 94.7773 24.6978 95.5894C24.6299 96.4421 22.4582 97.3558 18.1825 98.3303C13.8729 99.3211 10.1232 99.7475 6.93345 99.6094C5.79101 99.5607 5.0275 98.842 4.64292 97.4532C4.31489 96.2513 4.33186 94.956 4.69382 93.5672Z" fill="white"/>
<path d="M36.0484 94.1764C36.2746 95.9712 36.0315 97.031 35.3188 97.3559C34.5836 97.697 33.2036 97.701 31.1789 97.3681C29.109 97.027 27.4971 96.5113 26.3433 95.821C26.0153 95.6261 25.9474 95.2322 26.1397 94.6393C26.3433 94.0059 26.7675 93.4049 27.4123 92.8364C29.1768 91.2934 31.5918 90.7858 34.6571 91.3137C35.3584 91.4355 35.8222 92.3897 36.0484 94.1764Z" fill="#DBDCDC"/>
<path d="M18.5383 92.5439C20.3594 92.9012 21.8299 93.3439 22.9497 93.8717C24.16 94.4402 24.7425 95.0128 24.6973 95.5894C24.6407 96.4096 22.5934 97.2989 18.5552 98.2572C14.5171 99.2155 10.8692 99.6744 7.61157 99.6337C10.5751 99.0328 13.1711 98.1069 15.3994 96.8563C18.0236 95.3782 19.0699 93.9408 18.5383 92.5439Z" fill="#DBDCDC"/>
<path d="M17.8763 66.6211L21.8635 66.3774C26.6142 66.4911 30.3752 67.6647 33.1465 69.898C35.5445 71.839 36.8283 74.1819 36.998 76.9269C37.1337 78.9653 36.0591 81.0728 33.7743 83.2493C31.4215 85.4989 28.588 87.0054 25.2738 87.7688C23.9617 88.0692 21.8239 88.1423 18.8603 87.988C16.5076 87.8581 14.1379 87.6226 11.7512 87.2815C7.71307 86.7049 4.99271 85.0441 3.59011 82.2991C2.73045 80.6018 2.40243 78.5187 2.60603 76.0498C2.79832 73.8977 3.9351 71.9364 6.01638 70.166C8.8442 67.7459 12.7975 66.5642 17.8763 66.6211Z" fill="#3396CD"/>
<path d="M18.8608 87.9881C16.508 87.8581 14.1383 87.6226 11.7516 87.2815C8.86724 86.8754 6.64457 85.8968 5.08362 84.3457C7.05178 85.1659 9.18396 85.5476 11.4801 85.4908C14.2175 85.4177 16.7682 84.6949 19.1322 83.3224C22.5143 81.3652 24.8501 78.9897 26.1396 76.196C27.8136 72.5658 26.8635 69.3174 23.2891 66.4506C27.5874 66.7754 30.9864 68.022 33.4862 70.1904C35.6693 72.0908 36.84 74.3363 36.9984 76.9269C37.1341 78.9654 36.0596 81.0728 33.7747 83.2493C31.4219 85.4989 28.5885 87.0054 25.2743 87.7688C23.9621 88.0693 21.8243 88.1424 18.8608 87.9881Z" fill="#2880AE"/>
<path d="M3.25116 44.438C3.53394 42.8625 4.35966 41.3966 5.72833 40.0404C7.14224 38.6435 8.96335 37.539 11.1917 36.7269C13.5784 35.8498 16.2139 35.4032 19.0983 35.3869C23.3626 35.3544 26.0038 36.6619 27.0218 39.3095C27.3951 40.2678 27.5082 41.3113 27.3611 42.4402C27.2367 43.3904 26.9822 44.1416 26.5976 44.6938C23.521 46.3993 20.2859 47.8611 16.8926 49.0793C10.0945 51.5075 5.88103 51.4954 4.25221 49.0428C3.30206 47.5972 2.96838 46.0623 3.25116 44.438Z" fill="#3396CD"/>
<path d="M16.5192 35.5331L19.0982 35.3869C23.3626 35.3544 26.0038 36.6619 27.0218 39.3095C27.395 40.2678 27.5082 41.3113 27.3611 42.4402C27.2367 43.3904 26.9822 44.1416 26.5976 44.6938C25.2402 45.4004 23.6227 46.0501 21.7451 46.6429C17.9671 47.8205 14.749 48.1169 12.0909 47.5322C15.2128 45.307 17.2884 43.0371 18.3177 40.7226C19.4376 38.1969 18.8381 36.467 16.5192 35.5331Z" fill="#2880AE"/>
<path d="M11.141 43.7316C14.7379 42.4322 17.9221 41.9855 20.6933 42.3916C23.951 42.8707 26.1623 44.0767 27.3274 46.0096C27.8138 46.8136 28.0344 47.6419 27.9891 48.4947C27.9439 49.323 27.6554 50.0458 27.1238 50.663L7.57791 56.9123C4.87451 56.1002 3.34183 54.7155 2.97987 52.7583C2.67447 51.1503 3.14388 49.5058 4.38813 47.8247C5.51925 46.3141 7.7702 44.9498 11.141 43.7316Z" fill="#3396CD"/>
<path d="M18.521 42.2695L20.6928 42.3913C23.9504 42.8705 26.1618 44.0765 27.3269 46.0094C27.8132 46.8134 28.0338 47.6417 27.9886 48.4945C27.9433 49.3228 27.6549 50.0456 27.1233 50.6628L17.9951 53.0017C18.2439 52.8474 18.6285 52.4495 19.1488 51.8079C19.8501 50.9471 20.3817 50.0659 20.7437 49.1645C21.8296 46.4195 21.0887 44.1212 18.521 42.2695Z" fill="#2880AE"/>
<path d="M9.74965 65.3786L7.71362 61.9433L15.1621 63.8071L14.4156 65.5369C13.7708 66.7226 13.0921 67.3926 12.3795 67.5469C11.6669 67.7012 10.7903 66.9785 9.74965 65.3786Z" fill="white"/>
<path d="M12.6845 63.1857L15.1616 63.8069L14.4151 65.5368C13.7703 66.7225 13.0917 67.3925 12.3791 67.5468C12.3564 67.5549 12.4413 67.0757 12.6336 66.1093C12.8598 64.9236 12.8768 63.9491 12.6845 63.1857Z" fill="#DBDCDC"/>
<path d="M31.2973 61.9797C31.286 62.7593 31.1899 63.4578 31.0089 64.075C30.8392 64.676 30.6526 65.0008 30.449 65.0495C30.0983 65.1307 29.0294 64.7572 27.2422 63.9288C25.5568 63.1492 24.6237 62.6619 24.4427 62.467L29.4819 57.509C30.6922 58.4185 31.2973 59.9088 31.2973 61.9797Z" fill="white"/>
<path d="M26.8348 60.1159L29.4816 57.509C30.5223 58.2967 31.167 59.4134 31.4158 60.859C31.6647 62.3776 31.3932 63.8313 30.6014 65.2201C30.4657 64.3186 30.0132 63.3684 29.2441 62.3695C28.5428 61.4518 27.7397 60.7006 26.8348 60.1159Z" fill="#DBDCDC"/>
<path d="M23.9339 62.5037C24.0923 63.1047 23.8773 64.2417 23.2892 65.9146C22.6444 67.7013 21.9997 68.554 21.3549 68.4728C20.5405 68.3672 19.5677 67.8719 18.4366 66.9866C17.1471 65.9877 16.1348 64.8305 15.3995 63.5148L23.9339 62.5037Z" fill="white"/>
<path d="M23.9335 62.5037C24.0919 63.1047 23.877 64.2417 23.2888 65.9146C22.644 67.7013 21.9993 68.554 21.3545 68.4728L21.1509 67.0476C20.9813 65.7563 20.5401 64.4041 19.8275 62.991L23.9335 62.5037Z" fill="#DBDCDC"/>
<path d="M27.8871 51.4791C29.0748 52.1938 29.8326 52.9572 30.1607 53.7693C30.862 55.4747 30.3247 57.4238 28.5488 59.6166C26.6598 61.9474 24.1883 63.3808 21.1343 63.9168C17.7069 64.5177 14.4097 64.4203 11.2425 63.6244C7.84915 62.7635 5.96582 61.3707 5.59255 59.446C5.20797 57.4888 5.5869 55.7427 6.72934 54.2078C7.7926 52.7785 9.4497 51.6131 11.7006 50.7116C15.5125 49.1848 19.4545 48.8803 23.5266 49.798C25.2233 50.1878 26.6768 50.7482 27.8871 51.4791Z" fill="#3396CD"/>
<path d="M30.1602 53.7691C30.8615 55.4746 30.3242 57.4237 28.5483 59.6164C26.6593 61.9472 24.1878 63.3806 21.1338 63.9166L20.3702 64.0384C23.0171 62.2193 24.4989 59.8641 24.8156 56.973C25.1436 54.0087 24.103 51.5114 21.6937 49.4811C23.8089 49.7491 25.6639 50.2973 27.2588 51.1257C28.7971 51.9297 29.7643 52.8108 30.1602 53.7691Z" fill="#2880AE"/>
<path d="M94.6521 44.9374C97.5818 46.0744 99.5499 47.991 100.557 50.6873C101.405 52.9612 101.388 54.8616 100.506 56.3884C99.7931 57.639 98.3679 58.8085 96.2301 59.8967C94.6352 60.7088 91.1683 59.3364 85.8293 55.7793C84.1553 54.6667 82.402 53.4038 80.5696 51.9907L78.296 50.2C78.0132 48.9899 78.5166 47.7677 79.8061 46.5332C81.1861 45.2014 82.9959 44.3892 85.2355 44.0969C88.8438 43.6258 91.9827 43.906 94.6521 44.9374Z" fill="#3396CD"/>
<path d="M93.9899 44.8766C95.4943 45.5425 96.8064 46.3343 97.9263 47.252C99.2384 48.3403 100.115 49.4854 100.556 50.6873C101.404 52.9612 101.388 54.8616 100.505 56.3884C99.7926 57.6391 98.3674 58.8085 96.2296 59.8968C95.4491 60.2947 94.0804 59.2796 92.1236 56.8513L89.4258 53.0993L90.6135 52.7948C91.5411 52.5024 92.3328 52.1085 92.9889 51.6131C95.0815 50.0376 95.4152 47.7921 93.9899 44.8766Z" fill="#2880AE"/>
<path d="M90.4614 51.0893C92.8254 52.608 94.4486 54.4475 95.3309 56.6077C96.1792 58.6624 96.1962 60.3597 95.3818 61.6997C94.4429 63.259 92.4295 64.2741 89.3416 64.7452C86.6042 65.1756 83.4201 63.8275 79.7892 60.7008C78.658 59.7263 77.5495 58.6299 76.4637 57.4117L75.1742 55.889C74.6991 54.7764 74.8914 53.5298 75.751 52.1492C76.8596 50.3706 78.8447 49.3189 81.7064 48.9941C84.817 48.6367 87.7353 49.3351 90.4614 51.0893Z" fill="#3396CD"/>
<path d="M85.863 59.6043C87.2883 59.2875 88.5495 58.6947 89.6467 57.8257C91.841 56.0878 92.1182 53.8423 90.478 51.0892C91.6205 51.8282 92.6272 52.7012 93.4982 53.7083C94.3126 54.6585 94.9234 55.6249 95.3306 56.6075C96.1789 58.6622 96.1959 60.3596 95.3815 61.6996C94.4426 63.2588 92.4292 64.274 89.3413 64.745C88.4929 64.875 87.6615 64.0588 86.8471 62.2965L85.863 59.6043Z" fill="#2880AE"/>
<path d="M72.561 64.4041L71.0001 64.6964C69.8576 64.8751 69.0432 64.9238 68.5568 64.8426C68.0139 64.7614 68.2627 63.9249 69.3034 62.3331C70.3101 60.7982 71.1528 59.8156 71.8314 59.3851L72.561 64.4041Z" fill="white"/>
<path d="M68.5561 64.8425L69.9134 64.1359C71.0219 63.5512 71.8081 62.9827 72.2718 62.4305L72.5603 64.4039L70.9993 64.6963C69.8569 64.875 69.0425 64.9237 68.5561 64.8425Z" fill="#DBDCDC"/>
<path d="M79.2802 70.495L75.6832 70.8117C75.2647 70.8117 75.2534 70.3813 75.6493 69.5204C76.0112 68.7002 76.3845 68.148 76.7691 67.8637L84.7266 69.3377C83.2674 69.825 81.452 70.2107 79.2802 70.495Z" fill="#DBDCDC"/>
<path d="M72.6628 64.2943L77.2778 68.2169C75.8979 68.5498 74.45 68.7691 72.9343 68.8747C71.4186 68.9803 70.5589 68.9194 70.3553 68.692C69.9142 68.2291 70.163 67.356 71.1019 66.0729L72.6628 64.2943Z" fill="white"/>
<path d="M70.4061 68.7285C72.2046 68.2087 73.8447 67.4859 75.3265 66.5601L77.2777 68.2168C75.9429 68.5336 74.5347 68.7488 73.0529 68.8625C71.5824 68.9681 70.7002 68.9234 70.4061 68.7285Z" fill="#DBDCDC"/>
<path d="M88.7819 60.5545C89.9469 62.3493 90.4051 63.9857 90.1562 65.4638C89.8847 67.0393 88.8328 68.1682 87.0004 68.8504C84.8625 69.6462 83.0471 69.9873 81.554 69.8736C79.6311 69.7274 77.4593 68.8666 75.0387 67.2911C72.4597 65.6181 71.2268 63.5228 71.3399 61.0052C71.3851 60.0226 71.634 59.1089 72.0864 58.2643C72.5163 57.4847 73.0196 56.9325 73.5965 56.6076C76.0284 55.2351 78.7657 54.9387 81.8085 55.7183C84.8738 56.498 87.1983 58.11 88.7819 60.5545Z" fill="#3396CD"/>
<path d="M88.781 60.5544C89.946 62.3492 90.4041 63.9856 90.1553 65.4637C89.8838 67.0392 88.8319 68.1681 86.9994 68.8503C84.8616 69.6461 83.0461 69.9872 81.5531 69.8735C79.6301 69.7273 77.4584 68.8665 75.0378 67.291L74.4778 66.9012C76.1293 67.5671 77.8147 67.8595 79.534 67.7783C81.1515 67.697 82.6446 67.2991 84.0133 66.5844C85.3593 65.886 86.4226 64.9724 87.203 63.8435C88.0174 62.6741 88.4247 61.4112 88.4247 60.055L88.781 60.5544Z" fill="#2880AE"/>
<path d="M65.5704 40.5396C61.8716 41.6278 57.562 41.9974 52.6416 41.6481C49.8251 41.4451 47.1217 40.9294 44.5314 40.1011C41.3755 39.094 38.9323 37.7703 37.2017 36.1298C35.9801 34.9847 35.5842 33.6487 36.014 32.122C36.4438 30.5383 37.5863 29.5719 39.4413 29.2227C41.0362 28.9222 46.8163 29.0846 56.7815 29.7099L71.2713 30.7332C73.3412 35.5572 71.4409 38.826 65.5704 40.5396Z" fill="#F0E9A5"/>
<path d="M67.9798 31.1597C69.2353 30.8998 70.3325 30.7577 71.2713 30.7333C73.3413 35.5573 71.441 38.8261 65.5705 40.5397C61.8717 41.628 57.5621 41.9975 52.6417 41.6483C50.1871 41.4615 47.84 41.0514 45.6004 40.4179L49.5876 40.8443C51.126 40.9336 52.6304 40.8605 54.1008 40.625C57.415 40.0971 59.8752 39.2241 61.4814 38.0059C63.2799 36.6415 63.41 35.2163 61.8717 33.7301C63.4439 32.5362 65.48 31.6795 67.9798 31.1597Z" fill="#C9C48B"/>
<path d="M56.6801 18.7831C57.5398 18.044 59.3666 18.0034 62.1605 18.6613C64.4001 19.1891 66.0006 19.7373 66.9621 20.3058C68.6022 20.184 70.1179 20.2084 71.5092 20.3789C72.7308 20.5251 73.5453 20.7403 73.9525 21.0245C74.3144 21.2763 74.2466 22.0275 73.7489 23.2782C73.2625 24.4964 72.6121 25.6049 71.7977 26.6038C72.3858 27.6433 72.7026 28.8372 72.7478 30.1853C72.7931 31.5984 72.499 32.5404 71.8655 33.0115L70.1519 32.1709C69.3601 31.8786 68.54 31.7527 67.6917 31.7933C68.1894 32.7841 68.0593 33.4744 67.3014 33.8642C66.7811 34.1322 65.8875 34.2662 64.6207 34.2662C63.9533 34.2662 62.4772 33.986 60.1923 33.4256C57.6586 32.8003 55.8544 32.4308 54.7798 32.3171L49.2486 32.1344L43.5817 32.2318C40.4145 32.2399 39.5718 31.3101 41.0536 29.4422C39.4361 29.3285 38.1918 29.5802 37.3209 30.1975C36.7893 30.571 36.4838 30.9568 36.4047 31.3547C35.9975 30.3315 35.9352 29.1498 36.218 27.8098C36.5121 26.3724 37.1229 25.2841 38.0505 24.5451C37.6206 23.6761 37.2926 22.7462 37.0664 21.7554C36.6252 19.7657 36.908 18.4542 37.9147 17.8207C38.2314 17.6177 39.125 17.6136 40.5955 17.8085C42.1338 18.0197 43.5025 18.3526 44.7015 18.8074C46.681 18.1171 49.0337 17.7476 51.7597 17.6989C54.5762 17.6583 56.2164 18.0197 56.6801 18.7831Z" fill="#3396CD"/>
<path d="M38.3216 21.0611C37.8239 19.047 37.6882 17.9669 37.9144 17.8207C38.2311 17.6177 39.1247 17.6136 40.5952 17.8085C42.1335 18.0197 43.5022 18.3526 44.7012 18.8074C45.0292 18.6937 45.9567 18.5029 47.4837 18.2349C44.5994 19.1607 42.0091 20.8662 39.7129 23.3513C39.2717 23.8223 38.808 23.0589 38.3216 21.0611Z" fill="#2880AE"/>
<path d="M53.3206 17.7719C54.4744 17.7557 55.2775 17.8206 55.7299 17.9668C56.1145 18.0968 56.4312 18.3688 56.6801 18.783C57.5397 18.044 59.3665 18.0034 62.1604 18.6612C64.4 19.1891 66.0006 19.7372 66.962 20.3057C68.6022 20.1839 70.1179 20.2083 71.5092 20.3788C72.7308 20.525 73.5452 20.7402 73.9524 21.0245C74.3144 21.2762 74.2465 22.0274 73.7488 23.2781C73.2624 24.4963 72.612 25.6048 71.7976 26.6037C72.3858 27.6433 72.7025 28.8371 72.7477 30.1852C72.793 31.5983 72.4989 32.5404 71.8655 33.0114L70.1518 32.1708C69.36 31.8785 68.5399 31.7526 67.6916 31.7932C68.1893 32.784 68.0592 33.4743 67.3014 33.8641C66.781 34.1321 65.8875 34.2661 64.6206 34.2661C63.9645 34.2661 62.5732 33.9819 60.4467 33.4134C58.1053 32.7881 56.3916 32.4145 55.3058 32.2927C55.5433 31.6998 55.6055 31.1232 55.4924 30.5628L55.2379 29.8928L55.7299 29.8563L56.5274 29.9416C57.1382 30.169 57.6528 29.8279 58.0714 28.9183C58.4786 28.0331 58.4842 27.4362 58.0883 27.1276C57.6133 26.754 56.7932 26.4779 55.6281 26.2992C54.2029 26.0799 52.936 26.1855 51.8275 26.6159C51.2507 26.8433 50.9453 26.892 50.9113 26.7621C50.8887 26.6728 51.0357 26.4291 51.3525 26.0312C52.3252 24.8211 52.8399 24.0293 52.8965 23.6557C53.5525 24.0049 54.3613 24.2242 55.3227 24.3136C56.4312 24.4191 57.3305 24.2851 58.0205 23.9116C57.8508 24.5856 57.8847 24.9511 58.1223 25.0079C58.3032 25.0566 58.7218 24.9064 59.3778 24.5572C61.5383 23.4283 63.2915 22.7868 64.6376 22.6325C65.4067 22.5431 65.5538 22.2142 65.0787 21.6457C64.6262 21.1016 63.8401 20.59 62.7203 20.1108C61.4874 19.5748 60.3336 19.3068 59.259 19.3068C57.9582 19.3068 56.9968 19.7169 56.3747 20.5372C56.2955 19.8631 56.0466 19.3109 55.6281 18.8805C55.1304 18.3851 54.3613 18.0155 53.3206 17.7719Z" fill="#2880AE"/>
<path d="M43.0051 23.8994C43.3105 23.542 43.6103 23.2537 43.9044 23.0345C45.1373 23.3674 46.4777 23.9603 47.9255 24.813L49.724 25.9946L49.2829 26.4332L45.618 26.1408C43.6159 26.0028 42.3887 25.9906 41.9362 26.1043C42.0267 25.3652 42.383 24.6303 43.0051 23.8994Z" fill="white"/>
<path d="M68.251 27.3957L63.7887 27.4323L60.1409 27.5297L59.9203 27.1277L59.8015 26.9815L61.9224 25.7877C63.5851 24.9675 65.0669 24.5005 66.3677 24.3868L67.1652 25.3248C67.7194 26.0801 68.0814 26.7704 68.251 27.3957Z" fill="white"/>
<path d="M92.3787 14.3122C94.2224 13.362 96.2867 13.0006 98.5716 13.228C100.868 13.4635 102.723 14.2107 104.137 15.4695C105.551 16.7283 106.111 18.1373 105.816 19.6966C105.522 21.2559 104.459 22.5065 102.627 23.4486C100.783 24.3988 98.713 24.7602 96.4168 24.5328C94.1319 24.3054 92.2825 23.5623 90.8686 22.3035C89.4547 21.0366 88.8948 19.6235 89.1889 18.0642C89.483 16.5049 90.5462 15.2543 92.3787 14.3122Z" fill="#0D131A"/>
<path d="M26.7675 5.79714C28.3511 7.09654 29.0298 8.57866 28.8036 10.2435C28.5886 11.9165 27.5424 13.2849 25.6647 14.3488C23.7757 15.4208 21.6039 15.8756 19.1494 15.7132C16.6948 15.5507 14.6758 14.8198 13.0922 13.5204C11.5086 12.221 10.8243 10.7348 11.0392 9.06188C11.2541 7.3889 12.3061 6.02048 14.195 4.9566C16.084 3.89272 18.2558 3.44199 20.7103 3.60441C23.1649 3.76684 25.1839 4.49775 26.7675 5.79714Z" fill="#0D131A"/>
<path d="M49.2317 25.7266C49.0846 25.9865 48.8471 26.2139 48.519 26.4088L46.9242 26.1774L45.3293 26.019C45.1257 25.7429 45.0239 25.4464 45.0239 25.1297C45.0239 24.9267 45.1144 24.6912 45.2953 24.4232C45.4537 24.1877 45.6403 23.9887 45.8552 23.8263C46.3529 23.8994 46.9355 24.1552 47.6028 24.5937L49.2317 25.7266Z" fill="#0D131A"/>
<path d="M65.3156 26.3723C65.3156 26.7946 65.1007 27.1682 64.6709 27.4931L61.3114 27.4687C61.04 27.3225 60.8646 27.1682 60.7855 27.0058C60.7063 26.8677 60.6667 26.6566 60.6667 26.3723L61.9562 25.7389C62.9063 25.3328 63.6472 25.0811 64.1788 24.9836C64.5295 25.1298 64.8066 25.3206 65.0102 25.5562C65.2138 25.8079 65.3156 26.08 65.3156 26.3723Z" fill="#0D131A"/>
<path d="M12.091 27.627L12.6 28.09C11.4123 29.0483 10.2925 30.0309 9.24053 31.038C8.06416 32.1668 7.36851 32.9546 7.1536 33.4012L6.57672 33.2551C6.84819 32.6703 7.52687 31.8054 8.61275 30.6603C9.82306 29.3772 10.9825 28.3661 12.091 27.627Z" fill="#0D131A"/>
<path d="M74.6137 18.9049C74.263 19.1404 74.0368 19.311 73.935 19.4165C68.7658 17.3862 63.5456 16.1153 58.2745 15.6036C53.0487 15.092 48.2245 15.3641 43.8018 16.4198L43.8527 15.9204C48.3885 14.6697 53.4333 14.3327 58.9871 14.9093C64.2921 15.4696 69.501 16.8015 74.6137 18.9049Z" fill="#0D131A"/>
<path d="M96.9934 36.8365C97.6495 38.0872 98.2999 39.9835 98.9446 42.5255L97.9096 41.7336C97.5251 40.3124 96.9482 38.8547 96.179 37.3604L96.9934 36.8365Z" fill="#0D131A"/>
<path d="M12.091 18.2349L12.6509 18.9293C9.72128 20.3017 8.32999 21.2804 8.47704 21.8651C8.6354 22.5148 9.77218 24.1187 11.8874 26.6769C13.9008 29.1052 15.1507 30.4817 15.6371 30.8066L14.7039 30.8918C14.1723 30.5345 12.8997 29.1742 10.8863 26.8109C8.7372 24.2852 7.57779 22.6772 7.40812 21.9869C7.20452 21.1342 8.76548 19.8835 12.091 18.2349Z" fill="#0D131A"/>
<path d="M33.8082 11.9246V11.2181C36.9528 10.7714 39.0962 10.5399 40.2387 10.5237C41.4377 10.5075 42.6084 11.884 43.7508 14.6533C44.3277 16.0421 44.7858 17.447 45.1252 18.8683L44.4974 18.917C44.3843 18.0967 43.847 16.704 42.8855 14.7386C41.7205 12.3753 40.7194 11.1978 39.8824 11.2059C38.4006 11.2221 36.3759 11.4617 33.8082 11.9246Z" fill="#0D131A"/>
<path d="M12.6505 22.0719C12.6957 21.7877 13.5497 21.2882 15.2125 20.5736L15.5858 20.939C14.1492 21.5481 13.3744 21.9501 13.2613 22.145V22.1816C13.2613 22.677 14.1662 23.9601 15.976 26.031C17.7179 28.0207 19.1375 29.4501 20.2347 30.319L19.7766 30.6236C18.7359 29.8115 17.3164 28.3862 15.5179 26.3478C13.5045 24.0576 12.5487 22.6323 12.6505 22.0719Z" fill="#0D131A"/>
<path d="M38.5765 15.1527C37.9657 14.4218 37.5019 14.0685 37.1852 14.0929C36.6083 14.1253 35.6073 14.3162 34.1821 14.6654V14.239C35.6073 13.8736 36.5914 13.6746 37.1343 13.6421C37.7791 13.5934 38.5199 14.1132 39.357 15.2014C39.9791 16.0216 40.4881 16.8866 40.884 17.7961L40.1205 17.5647C39.702 16.6713 39.1873 15.8673 38.5765 15.1527Z" fill="#0D131A"/>
<path d="M83.1988 18.7587L83.0291 19.0633L82.7577 19.3313C80.009 18.2105 78.0974 17.5568 77.0228 17.37C76.5817 17.2969 75.9257 17.6908 75.0547 18.5516C74.3647 19.2419 73.7595 19.9769 73.2392 20.7565L72.6454 20.6347L74.376 18.1131C75.2583 17.033 76.0388 16.5538 76.7174 16.6756C77.1586 16.7568 77.9787 16.9842 79.1776 17.3578C80.4558 17.772 81.7962 18.239 83.1988 18.7587Z" fill="#0D131A"/>
<path d="M99.5896 28.1994C100.879 29.2877 101.852 30.2338 102.508 31.0378C103.254 31.9636 103.515 32.6215 103.288 33.0113C102.994 33.5067 101.603 34.5137 99.1145 36.0324C97.7572 36.8607 95.8343 37.9774 93.3458 39.3824L92.7859 39.1022C94.4939 38.1114 96.3263 36.9704 98.2832 35.6791C100.692 34.0711 102.039 33.0356 102.321 32.5727C102.502 32.2804 102.27 31.7647 101.626 31.0256C101.004 30.3191 100.059 29.4704 98.7922 28.4796L99.5896 28.1994Z" fill="#0D131A"/>
<path d="M98.2321 31.9394C98.1756 32.3779 97.2198 33.2916 95.3647 34.6803C93.8264 35.8335 92.1919 36.9421 90.4613 38.0059L89.8165 37.811C91.3775 36.8771 93.0176 35.7726 94.7369 34.4976C96.5807 33.117 97.5365 32.252 97.6043 31.9028C97.5252 31.6592 96.6825 31.0298 95.0763 30.0147L95.7041 29.7954C97.4234 30.9242 98.266 31.6389 98.2321 31.9394Z" fill="#0D131A"/>
<path d="M81.3673 21.6823L81.1806 22.1208C79.4274 21.2112 78.3754 20.7158 78.0248 20.6346L77.6855 20.6712C77.0068 20.9067 76.1132 21.8447 75.0047 23.4852C74.179 24.7115 73.4098 26.0515 72.6972 27.5052L72.1033 27.359C72.7707 26.019 73.4607 24.7927 74.1733 23.6801C75.4515 21.7066 76.5317 20.5656 77.414 20.257L78.2454 20.2083C78.5508 20.2895 79.5914 20.7808 81.3673 21.6823Z" fill="#0D131A"/>
<path d="M73.4606 28.2605C73.8338 27.489 74.3938 26.8556 75.1403 26.3602C76.1583 25.6861 77.4478 25.3166 79.0088 25.2516L78.7034 25.7267C77.3008 25.8323 76.1696 26.2099 75.31 26.8596C74.6765 27.3469 74.2071 27.9641 73.9017 28.7113L73.4606 28.2605Z" fill="#0D131A"/>
<path d="M91.717 32.4632C91.8188 33.2429 91.7114 33.986 91.3947 34.6925C90.8857 35.8295 89.879 36.6781 88.3746 37.2385L87.9334 36.8974C89.3247 36.4101 90.2692 35.6671 90.7669 34.6681C91.0949 34.0022 91.208 33.2794 91.1062 32.4998L90.9705 32.0734L91.5134 31.8298C91.6265 32.0572 91.6944 32.2683 91.717 32.4632Z" fill="#0D131A"/>
<path d="M76.0393 30.3802L75.4285 29.8808C75.2248 29.1092 75.5359 28.4271 76.3616 27.8342C77.0516 27.3388 77.8604 27.0343 78.7879 26.9206V27.4079C77.7133 27.6921 76.9442 28.1834 76.4804 28.8819C76.1637 29.3529 76.0166 29.8523 76.0393 30.3802Z" fill="#0D131A"/>
<path d="M89.172 32.6703C89.2625 33.7179 88.9458 34.5098 88.2219 35.0458C87.8825 35.3138 87.3961 35.5249 86.7627 35.6792L84.9812 35.9594L84.4382 35.533C85.049 35.5168 85.6372 35.4193 86.2028 35.2407C86.7797 35.0701 87.2604 34.8387 87.645 34.5463C88.301 34.0265 88.6008 33.4256 88.5442 32.7434L89.172 32.6703Z" fill="#0D131A"/>
<path d="M109.192 15.9812C109.792 17.11 110.058 18.1983 109.99 19.2459C109.899 20.5209 109.503 21.6863 108.802 22.7421C108.044 23.8953 106.941 24.8739 105.493 25.6779C103.865 26.5875 101.235 27.8544 97.6038 29.4786L90.7831 32.4023C89.5276 32.9058 88.1363 33.1373 86.6092 33.0967C84.9804 33.056 83.3912 32.715 81.8415 32.0734C80.3824 31.4643 79.3531 30.4776 78.7536 29.1132C78.2219 27.8869 78.1767 26.8027 78.6178 25.8606C79.0929 24.8455 80.258 22.7989 82.113 19.721C84.0812 16.4481 85.3367 14.5356 85.8797 13.9833C86.909 12.8383 88.2607 11.9165 89.9348 11.2181C91.5862 10.5196 93.4186 10.1014 95.432 9.96334C97.2418 9.8334 99.1082 9.99583 101.031 10.4506C102.92 10.8973 104.498 11.5429 105.765 12.3875C107.315 13.4108 108.457 14.6087 109.192 15.9812ZM107.818 22.5715C108.542 21.5158 108.943 20.4113 109.023 19.2581C109.102 18.2186 108.898 17.2115 108.412 16.237C107.767 14.9538 106.67 13.7884 105.12 12.7408C103.955 11.953 102.462 11.3683 100.641 10.9866C98.8424 10.613 97.0609 10.5034 95.2963 10.6577C93.2942 10.8364 91.5579 11.2871 90.0875 12.0099C88.8772 12.6027 87.7347 13.4433 86.6601 14.5315C86.0946 15.1 84.8051 16.9435 82.7917 20.0621C80.8235 23.1238 79.6302 25.1054 79.2117 26.0068C78.8158 26.8677 78.8441 27.83 79.2965 28.8939C79.8281 30.1121 80.7896 30.9933 82.1809 31.5374C83.7079 32.1302 85.1953 32.4673 86.6432 32.5485C88.091 32.6297 89.3692 32.447 90.4777 32.0003C91.7672 31.4887 94.0068 30.4857 97.1966 28.9914C100.669 27.3509 103.276 26.0556 105.018 25.1054C106.161 24.48 107.094 23.6354 107.818 22.5715Z" fill="#0D131A"/>
<path d="M92.3443 14.5436C91.5412 14.9741 90.8908 15.4938 90.3931 16.1029C89.8954 16.712 89.5844 17.3617 89.4599 18.052C89.3242 18.7423 89.3808 19.4285 89.6296 20.1107C89.8898 20.7848 90.3196 21.4101 90.9191 21.9867C91.5865 22.6121 92.3896 23.1196 93.3284 23.5095C94.2786 23.9074 95.3135 24.1592 96.4334 24.2647L99.691 24.1429C100.754 23.9399 101.716 23.6029 102.575 23.1318C103.378 22.6933 104.029 22.1735 104.527 21.5726C105.024 20.9635 105.341 20.3138 105.477 19.6235C105.759 18.1292 105.217 16.7729 103.848 15.5547C102.491 14.3447 100.709 13.63 98.5033 13.4107C97.3835 13.3051 96.2976 13.3498 95.2457 13.5447C94.1824 13.7315 93.2153 14.0645 92.3443 14.5436ZM89.8672 15.8715C90.3988 15.2218 91.1001 14.6573 91.9711 14.1782C92.9099 13.6747 93.9449 13.3173 95.076 13.1062C96.2184 12.895 97.3892 12.8463 98.5882 12.96C100.964 13.1955 102.886 13.9711 104.357 15.2867C105.827 16.6024 106.404 18.0682 106.088 19.6844C105.94 20.4396 105.601 21.1462 105.07 21.804C104.527 22.4537 103.825 23.0141 102.966 23.4851C102.027 23.9967 100.986 24.3581 99.8437 24.5693C98.7013 24.7804 97.5362 24.8251 96.3485 24.7033C95.1495 24.5896 94.041 24.3216 93.023 23.8993C92.005 23.477 91.1397 22.9288 90.4271 22.2547C89.771 21.6294 89.3072 20.9513 89.0358 20.2204C88.753 19.4895 88.6851 18.7464 88.8322 17.9911C88.9792 17.2358 89.3242 16.5293 89.8672 15.8715Z" fill="#0D131A"/>
<path d="M22.6106 30.3801C20.4841 29.4624 19.4661 28.1711 19.5566 26.5062C19.5792 25.9865 19.7149 25.4545 19.9638 24.9104L20.337 24.1917L20.8291 24.679C20.4897 25.7753 20.4332 26.7174 20.6594 27.5052C20.9874 28.6259 21.8923 29.5314 23.3741 30.2217L22.6106 30.3801Z" fill="#0D131A"/>
<path d="M37.1169 18.5759V19.051C36.3477 18.8805 35.6408 18.7546 34.996 18.6734L34.9621 18.2105L37.1169 18.5759Z" fill="#0D131A"/>
<path d="M35.7257 21.9991C35.5108 21.6499 35.1884 21.3128 34.7586 20.988L34.8774 20.4642C35.5108 20.8459 35.9859 21.2966 36.3026 21.8163C36.6872 22.4579 36.8116 23.1482 36.6759 23.8873C36.2008 24.2852 35.8558 24.5045 35.6409 24.5451C36.0368 23.4081 36.0651 22.5594 35.7257 21.9991Z" fill="#0D131A"/>
<path d="M22.746 26.421C22.4858 26.088 22.2766 25.7185 22.1182 25.3124L22.4745 25.349L22.8139 25.4099C22.893 25.5886 23.0231 25.7997 23.2041 26.0433C23.6679 26.6037 24.2843 27.0869 25.0535 27.493C25.834 27.8909 26.6088 28.1264 27.378 28.1995C28.0793 28.2645 28.7862 28.2604 29.4988 28.1874L28.7184 28.6137C28.2885 28.8086 27.9718 28.8939 27.7682 28.8695C25.5625 28.6584 23.8884 27.8422 22.746 26.421Z" fill="#0D131A"/>
<path d="M29.3803 2.88566C31.077 4.07136 32.2195 5.2733 32.8077 6.49149C33.2375 7.40919 33.7748 9.56131 34.4195 12.9479C35.0756 16.44 35.3697 18.8561 35.3018 20.1961C35.2452 21.398 34.7928 22.4903 33.9444 23.473C32.9717 24.6099 31.6483 25.3449 29.9742 25.6779C28.0513 26.0596 26.2641 26.153 24.6126 25.9581C22.9951 25.7632 21.6547 25.3165 20.5915 24.6181C18.9174 23.5298 17.0228 22.2304 14.9076 20.7199C12.1024 18.7139 10.0324 17.114 8.69766 15.9202C7.47605 14.8401 6.65598 13.6788 6.23746 12.4362C5.79632 11.1287 5.77935 9.66689 6.18656 8.05076C6.49196 6.83258 7.06884 5.69967 7.91719 4.65203C9.04831 3.25518 10.5753 2.15069 12.4983 1.33857C14.1384 0.656386 16.0104 0.234082 18.1143 0.0716579C20.1616 -0.0907666 22.0902 0.0229305 23.9 0.412749C25.789 0.818811 27.6158 1.64312 29.3803 2.88566ZM32.112 6.93003C31.5351 5.61439 30.3644 4.39215 28.5999 3.2633C26.9371 2.1913 25.1386 1.44414 23.2044 1.02184C21.4851 0.648265 19.7601 0.542689 18.0295 0.705114C16.2988 0.859417 14.6304 1.2736 13.0242 1.94766C11.1805 2.71918 9.7383 3.71403 8.69766 4.93221C7.90587 5.85803 7.37424 6.87724 7.10277 7.98985C6.7295 9.47604 6.80868 10.9744 7.34031 12.485C7.81538 13.8087 8.52234 14.8807 9.46118 15.701C10.8525 16.911 12.8715 18.4906 15.5184 20.4397C17.758 22.0802 19.5848 23.3633 20.9987 24.2892C21.9715 24.9226 23.21 25.3124 24.7144 25.4586C26.2188 25.6048 27.8929 25.4952 29.7366 25.1297C31.275 24.8292 32.4966 24.1714 33.4015 23.1562C34.2046 22.2629 34.6288 21.2681 34.674 20.1717L34.691 19.855C34.691 18.2388 34.3969 15.9852 33.8087 13.094C33.2431 10.2597 32.6776 8.20507 32.112 6.93003Z" fill="#0D131A"/>
<path d="M26.9537 5.60221C28.5938 6.95033 29.3008 8.4893 29.0746 10.2191C28.9728 11.0312 28.656 11.7946 28.1244 12.5093C27.5928 13.224 26.8802 13.8452 25.9866 14.3731C25.0364 14.9416 23.9675 15.3599 22.7798 15.6279C21.5922 15.8877 20.3592 15.973 19.0811 15.8837C16.5473 15.7131 14.4604 14.9579 12.8203 13.6179C11.1801 12.2697 10.4675 10.7308 10.6824 9.00094C10.7955 8.18882 11.1179 7.42542 11.6495 6.71075C12.1699 5.99608 12.8768 5.37075 13.7704 4.83475C14.7319 4.26626 15.8064 3.85208 16.9941 3.5922C18.1931 3.34044 19.426 3.25517 20.6929 3.33638C23.2266 3.49881 25.3136 4.25408 26.9537 5.60221ZM28.4468 10.1826C28.6617 8.57457 28.0056 7.14524 26.4786 5.89457C24.9516 4.6439 23.0061 3.94141 20.642 3.78711C19.443 3.7059 18.2893 3.78305 17.1808 4.01857C16.0723 4.2622 15.0712 4.65202 14.1776 5.18802C13.3519 5.68342 12.6902 6.26002 12.1925 6.91784C11.7061 7.57566 11.412 8.28221 11.3102 9.03748C11.1066 10.6455 11.7683 12.0748 13.2953 13.3255C14.8224 14.5762 16.7679 15.2786 19.132 15.4329C20.3196 15.5142 21.4677 15.4329 22.5762 15.1893C23.6847 14.9457 24.6914 14.5599 25.5963 14.032C26.4221 13.5366 27.0781 12.96 27.5645 12.3022C28.0622 11.6363 28.3563 10.9297 28.4468 10.1826Z" fill="#0D131A"/>
<path d="M57.9016 86.2216L57.8846 86.5749C56.4934 87.2246 55.5885 87.7849 55.1699 88.256L55.0342 88.4874C55.1586 88.593 55.5998 88.727 56.3576 88.8894C57.1268 89.0518 58.0034 89.198 58.9875 89.328L59.5304 89.998C56.1936 89.6163 54.3668 89.2792 54.0501 88.9869C53.8918 88.8569 53.8691 88.6864 53.9823 88.4752C54.118 88.1991 54.6157 87.7809 55.4753 87.2205C56.3124 86.6764 57.1324 86.2257 57.9355 85.8683L57.9016 86.2216Z" fill="#0D131A"/>
<path d="M37.2867 23.2658L37.6091 23.8506C36.1273 24.6464 34.6512 25.5601 33.1807 26.5915C30.9072 28.1914 28.611 29.2796 26.2922 29.8562C24.8217 30.2298 22.7008 30.4897 19.9296 30.6359L17.8257 30.7577C13.9459 31.0257 10.4281 32.0083 7.27224 33.7057C4.45573 35.2081 2.56675 36.873 1.60529 38.7002C0.937924 39.9753 0.802188 41.4005 1.19808 42.9761C1.53742 44.3242 2.23307 45.6682 3.28501 47.0082C3.3755 47.4224 3.53386 47.9259 3.76009 48.5188C2.17651 46.9514 1.10194 45.4571 0.536373 44.0359C-0.255416 42.0787 -0.170581 40.158 0.790877 38.2739C1.89938 36.0893 3.92976 34.2863 6.882 32.8651C9.91342 31.4033 13.5387 30.5262 17.7578 30.2339L19.8787 30.112C22.5594 29.9659 24.5502 29.7263 25.851 29.3933C27.9662 28.8573 30.121 27.8218 32.3154 26.2869C33.9669 25.1256 35.624 24.1186 37.2867 23.2658Z" fill="#0D131A"/>
<path d="M78.8221 32.8287C77.1141 31.6674 75.0272 30.0553 72.5613 27.9925L72.3407 27.7976L71.9675 26.6891L73.1212 27.6515C75.5531 29.6899 77.6118 31.2816 79.2972 32.4267C81.7743 34.1159 84.1384 35.3626 86.3893 36.1666C92.7237 38.4405 97.0502 40.4952 99.369 42.3306C102.808 45.0512 103.356 48.0682 101.015 51.3817L100.557 50.7726C102.163 47.922 101.382 45.2136 98.2153 42.6473C95.7721 40.6738 91.717 38.6679 86.05 36.6295C83.7538 35.8092 81.3445 34.5423 78.8221 32.8287Z" fill="#0D131A"/>
<path d="M61.5498 90.7046L62.2624 91.0092C62.3076 91.2772 62.4151 91.5492 62.5847 91.8254C61.9513 91.6061 61.3518 91.3665 60.7863 91.1066C59.214 90.3838 58.2073 89.3281 57.7661 87.9394C57.4042 86.7861 57.4664 85.9293 57.9528 85.369L58.6484 85.1741C58.2525 85.6289 58.2469 86.4329 58.6315 87.5861C59.0952 88.9829 60.068 90.0224 61.5498 90.7046Z" fill="#0D131A"/>
<path d="M75.0887 93.1775L72.1364 93.2872L72.5776 92.6537L74.4269 92.5685L75.0887 93.1775Z" fill="#0D131A"/>
<path d="M87.8483 85.6368C88.3008 86.3759 88.2046 87.1921 87.5599 88.0854C86.983 88.865 86.0385 89.6365 84.7264 90.3999L83.8441 90.0954C85.0318 89.397 85.9197 88.6701 86.5079 87.9148C87.1414 87.1027 87.3223 86.384 87.0509 85.7587L87.8483 85.6368Z" fill="#0D131A"/>
<path d="M3.74336 54.8046L4.3881 55.3284C4.10532 57.1314 4.06573 59.052 4.26934 61.0905C4.61999 64.3389 5.59841 67.0839 7.20461 69.3254L6.50897 69.8492C4.48425 67.4778 3.35878 64.5785 3.13255 61.1514C2.98551 58.9911 3.18911 56.8755 3.74336 54.8046Z" fill="#0D131A"/>
<path d="M89.1199 67.5347C90.6809 68.8747 91.8573 70.2147 92.6491 71.5547C93.9951 73.8286 94.408 76.2325 93.8876 78.7663C93.3447 81.422 92.2588 83.3832 90.63 84.6502C89.8269 85.2755 88.5431 85.8562 86.7785 86.3922L86.6258 86.4409C83.6622 87.3505 80.6761 87.8052 77.6673 87.8052C72.4867 87.789 67.8434 86.4043 63.7374 83.6512L64.7045 83.2858C68.3807 85.576 72.6903 86.7942 77.6333 86.9403C81.0041 87.0378 83.9054 86.7089 86.3374 85.9536L86.4901 85.9049C87.9605 85.4582 89.0917 84.8857 89.8834 84.1872C91.2747 82.9609 92.2305 81.0687 92.7509 78.5105C93.5653 74.5392 92.1966 71.0187 88.6449 67.9488L89.1199 67.5347Z" fill="#0D131A"/>
<path d="M63.2808 94.1521C62.0818 92.7227 61.5954 91.7035 61.8216 91.0944C61.9687 90.7046 62.5512 90.327 63.5692 89.9615C64.7456 89.5392 66.0011 89.3768 67.3359 89.4742C69.2588 89.6123 70.7745 90.1402 71.883 91.0579C72.8105 91.8213 73.1442 92.4588 72.8841 92.9704C72.5673 93.5714 71.5437 94.2861 69.813 95.1144C68.2181 95.8697 67.1153 96.2636 66.5045 96.2961C65.5883 96.3448 64.5137 95.6301 63.2808 94.1521ZM62.8736 91.0579C62.6134 91.2041 62.8057 91.736 63.4504 92.6537C64.0613 93.547 64.7286 94.2901 65.4525 94.883C66.0181 95.3459 66.397 95.5773 66.5893 95.5773C67.0418 95.5611 67.9863 95.2119 69.4228 94.5297C70.9951 93.7744 71.9169 93.1369 72.1884 92.6172C72.3468 92.3086 72.0018 91.8944 71.1534 91.3746C70.2033 90.7899 69.0269 90.3879 67.6243 90.1686C65.9842 89.9169 64.4006 90.2133 62.8736 91.0579Z" fill="#0D131A"/>
<path d="M73.8335 92.3248C73.8674 91.9188 74.252 91.4965 74.9873 91.0579C75.7225 90.6275 76.633 90.2742 77.7189 89.9981C80.3771 89.324 82.6563 89.3687 84.5566 90.1321C85.4841 90.4975 86.4399 91.468 87.424 93.0435C88.3968 94.5785 88.8323 95.7642 88.7305 96.6006C88.6739 97.096 88.4138 97.3803 87.95 97.4534C86.8754 97.6077 84.9468 97.3031 82.1643 96.5397C79.4043 95.7845 77.193 94.9642 75.5302 94.079C74.3538 93.4455 73.7883 92.8608 73.8335 92.3248ZM77.4475 90.5341C76.5991 90.7777 75.8978 91.0823 75.3436 91.4477C74.8232 91.7807 74.5631 92.0812 74.5631 92.3492C74.5631 93.0395 76.3559 93.9734 79.9416 95.151C83.5273 96.3286 86.0327 96.8159 87.4579 96.6128C87.605 96.5966 87.6955 96.4463 87.7294 96.1621C87.8199 95.3743 87.4466 94.2983 86.6096 92.9339C85.7613 91.5289 84.9468 90.7209 84.1664 90.5097C81.8815 89.8925 79.6418 89.9006 77.4475 90.5341Z" fill="#0D131A"/>
<path d="M65.6891 41.6484C62.4427 42.5418 58.9702 43.0087 55.2714 43.0493C51.8893 43.0899 48.3658 42.5783 44.701 41.5144C41.7261 40.6455 39.5204 39.7237 38.0839 38.7491L35.6067 36.9462C34.4303 36.0529 33.5537 35.4276 32.9768 35.0702C32.0606 34.5017 31.3197 34.1891 30.7542 34.1322C30.2904 34.0835 29.6909 34.2581 28.9557 34.6561C28.2657 35.0377 27.5701 35.6184 26.8688 36.3981C26.2579 37.0802 25.9299 37.5513 25.8847 37.8111L25.3248 37.4091C25.3813 37.0599 25.7037 36.5524 26.2919 35.8864C26.9366 35.1474 27.6153 34.5789 28.3279 34.181C28.7238 33.9698 29.1706 33.8196 29.6683 33.7302L30.839 33.6815C31.5064 33.7465 32.3151 34.0713 33.2653 34.6561C33.8422 35.0053 34.7753 35.6671 36.0648 36.6417L38.5081 38.4202C39.922 39.3704 42.0711 40.2638 44.9555 41.1002C48.5299 42.1398 51.9685 42.6392 55.2714 42.5986C58.8684 42.558 62.2504 42.1032 65.4176 41.2342C68.5847 40.3734 70.9545 39.2608 72.5267 37.8964C72.8887 37.5797 73.3185 37.3361 73.8162 37.1655C74.3591 36.9787 74.9134 36.9016 75.479 36.9341C76.316 36.9909 77.1191 37.1939 77.8883 37.5431C78.6801 37.9005 79.2739 38.335 79.6698 38.8466C80.1675 39.4719 80.4842 40.5277 80.6199 42.0139C80.7217 43.1996 80.6991 44.3731 80.5521 45.5344L80.0431 45.9852C79.8395 46.1395 79.7546 46.107 79.7886 45.8877L79.8055 45.7172C79.9865 44.6452 80.0318 43.5285 79.9413 42.3672C79.8395 40.9459 79.5397 39.9145 79.042 39.273C78.6914 38.8263 78.1541 38.4365 77.4302 38.1035C76.7176 37.7705 76.0049 37.5838 75.2923 37.5431C74.3422 37.4701 73.5787 37.6812 73.0018 38.1766C71.3956 39.5978 68.958 40.7551 65.6891 41.6484Z" fill="#0D131A"/>
<path d="M37.4562 85.1619L37.3884 84.7599L37.2866 84.3579C43.0666 85.7791 49.35 85.9781 56.1368 84.9548C60.1636 84.3539 63.7832 83.4565 66.9956 82.2627C69.7556 81.2394 72.4364 79.6192 75.038 77.4021C76.3614 76.5575 77.6904 75.319 79.0252 73.6866C80.3147 72.0949 80.9368 70.9823 80.8915 70.3488L81.5702 70.2026C81.7399 71.0472 81.163 72.2979 79.8396 73.9546C78.5727 75.5464 77.2436 76.7687 75.8524 77.6214C74.5629 79.2375 72.4307 80.7277 69.4558 82.0921C66.5828 83.4159 63.2855 84.4676 59.5641 85.2472C55.7409 86.0512 51.9516 86.4613 48.1963 86.4776C44.1695 86.5019 40.5895 86.0634 37.4562 85.1619Z" fill="#0D131A"/>
<path d="M70.22 40.7468L74.784 38.2618C76.1075 37.6933 77.2612 37.6445 78.2453 38.1156L78.381 38.4445C77.4988 38.0222 76.4921 38.0547 75.3609 38.5419L70.3557 41.2463C68.2065 42.3833 65.3335 43.2522 61.7365 43.8532C57.8115 44.5029 54.1692 44.6166 50.8098 44.1943C46.6133 43.6664 42.824 42.5619 39.442 40.8809C37.4851 39.9144 35.3869 38.5541 33.1472 36.7999L32.265 36.0325C31.4279 35.399 30.5287 35.0661 29.5672 35.0336C28.8659 35.0011 28.1703 35.127 27.4803 35.4112L27.8875 34.9848C28.6906 34.7574 29.3636 34.6559 29.9066 34.6803C30.7662 34.7209 31.5806 35.0295 32.3498 35.6061L33.249 36.3979C35.4434 38.1196 37.536 39.4718 39.5268 40.4545C42.9089 42.1193 46.6755 43.2076 50.8268 43.7192C54.0279 44.1172 57.523 44.0197 61.3123 43.4269C65.0224 42.8421 67.9916 41.9488 70.22 40.7468Z" fill="#0D131A"/>
<path d="M42.2068 80.5937C45.0799 81.0567 48.1735 81.345 51.4877 81.4587C60.6159 81.7754 68.1209 80.7196 74.0028 78.2914L74.2743 78.6203L72.6794 79.2294C66.7523 81.4465 59.4282 82.3479 50.7072 81.9337C47.5174 81.7876 44.5652 81.479 41.8505 81.0079C39.4525 80.5937 37.9481 80.1958 37.3373 79.8141L37.473 79.3877C38.0951 79.7776 39.6731 80.1796 42.2068 80.5937Z" fill="#0D131A"/>
<path d="M51.9629 81.0932C48.5356 80.9389 45.3458 80.6059 42.3936 80.0942C39.7693 79.6395 38.1292 79.205 37.4731 78.7908L37.8125 78.4984C38.3441 78.8314 40.0012 79.205 42.7838 79.6191C45.9736 80.0902 49.3387 80.3907 52.8791 80.5206C62.8557 80.8698 70.4512 79.7247 75.6657 77.0853L74.9191 78.0599C68.992 80.5125 61.3399 81.5236 51.9629 81.0932Z" fill="#0D131A"/>
<path d="M29.7527 64.9885C31.9132 66.2229 34.6449 67.3315 37.9477 68.3142C41.5334 69.3862 45.334 70.1577 49.3495 70.6287C59.0998 71.79 68.0697 71.0551 76.259 68.4238L76.0045 68.6796L75.784 68.9476C67.21 71.6926 57.7934 72.3179 47.5341 70.8236C43.3828 70.2227 39.5087 69.309 35.9117 68.0827C32.5862 66.9539 29.9789 65.7357 28.09 64.4282L28.9213 64.7449L29.7527 64.9885Z" fill="#0D131A"/>
<path d="M36.7442 67.1692C33.9616 66.2677 31.8747 65.4028 30.4834 64.5745L30.8227 64.2821C32.1348 65.0617 34.1596 65.8739 36.8969 66.7185C40.1432 67.7255 43.6328 68.5214 47.3655 69.1061C55.9847 70.438 63.863 70.3202 71.0004 68.7528L71.8148 68.9599C67.5731 70.04 63.0938 70.5801 58.377 70.5801C54.9384 70.5801 51.2905 70.2837 47.4333 69.6908C43.7119 69.1142 40.1489 68.2737 36.7442 67.1692Z" fill="#0D131A"/>
<path d="M27.0727 50.8942L27.429 50.6262C29.1596 51.7632 31.4954 52.8595 34.4363 53.9153C37.875 55.1416 41.4833 56.0471 45.2612 56.6318C54.4799 58.0693 64.366 57.1963 74.9194 54.0127V54.4635C69.3203 56.177 64.1624 57.245 59.4456 57.6673C54.7062 58.0977 49.8762 57.9312 44.9558 57.1678C41.1892 56.575 37.5696 55.6248 34.097 54.3173C31.2692 53.2534 28.9277 52.1124 27.0727 50.8942Z" fill="#0D131A"/>
<path d="M27.7169 49.5786L28.0901 49.3228C29.5154 50.3785 31.6928 51.4343 34.6224 52.4901C38.095 53.7489 41.8107 54.6828 45.7697 55.2919C56.3796 56.9405 66.2431 55.97 75.36 52.3804L75.2921 52.9042C69.8627 54.9508 64.1788 56.1406 58.2403 56.4735C53.6932 56.7253 49.163 56.4695 44.6498 55.7061C40.7588 55.0482 37.1335 54.0534 33.774 52.7215C31.1385 51.6739 29.1195 50.6262 27.7169 49.5786Z" fill="#0D131A"/>
<path d="M2.3003 79.0101L3.02988 79.1197C2.17022 82.2383 1.88178 84.9751 2.16457 87.3303C2.45866 89.6854 3.32397 91.5817 4.7605 93.0192L4.3533 93.5186C2.57743 92.0731 1.4972 90.1321 1.11262 87.6957C0.705411 85.1375 1.10131 82.2423 2.3003 79.0101Z" fill="#0D131A"/>
<path d="M24.1372 96.3082L24.4596 95.7479L25.257 95.5651C25.6077 95.4514 25.8678 95.3824 26.0375 95.358L26.4447 95.6869L26.8858 95.9915L24.1372 96.3082Z" fill="#0D131A"/>
<path d="M36.9474 78.4131C37.1737 78.0476 37.3207 77.6497 37.3886 77.2193C38.1691 79.3876 38.3218 81.9215 37.8467 84.8207C37.4055 87.5576 36.5402 89.8884 35.2508 91.8131L34.4024 91.3015C35.4317 89.5717 36.1952 87.4967 36.6929 85.0766C37.2133 82.5427 37.2981 80.3216 36.9474 78.4131Z" fill="#0D131A"/>
<path d="M26.1398 95.9916C25.8117 95.7967 25.6138 95.5165 25.5459 95.1511C25.4667 94.7288 25.5912 94.2821 25.9192 93.8111C26.6092 92.8284 27.6838 92.065 29.1429 91.5209C30.8509 90.8874 32.7116 90.7453 34.725 91.0945C35.1096 91.1595 35.4716 91.4844 35.8109 92.0691C36.0598 92.5076 36.2464 92.9827 36.3708 93.4944C36.5857 94.4202 36.6706 95.2323 36.6253 95.9307C36.5801 96.8647 36.3086 97.4453 35.8109 97.6727C34.9965 98.0463 33.4751 98.0382 31.2468 97.6484C29.0411 97.2585 27.3388 96.7063 26.1398 95.9916ZM29.6349 91.8376C28.4246 92.2762 27.5084 92.9381 26.8863 93.8233C26.5357 94.3349 26.3603 94.7897 26.3603 95.1876C26.3603 95.4232 26.4225 95.5775 26.547 95.6505C27.6329 96.3084 29.1938 96.7794 31.2298 97.0636C33.1754 97.3398 34.4931 97.3195 35.1831 97.0027C35.4998 96.8565 35.6978 96.4342 35.777 95.7358C35.8448 95.0455 35.7826 94.2618 35.5903 93.3847C35.4546 92.8081 35.2793 92.3452 35.0644 91.996C34.8834 91.7118 34.7194 91.5575 34.5723 91.5331C32.7173 91.2164 31.0715 91.3179 29.6349 91.8376Z" fill="#0D131A"/>
<path d="M4.11693 93.5918C4.37709 92.5685 5.5365 91.9188 7.59515 91.6427C9.06562 91.4478 11.26 91.4315 14.1783 91.594C16.9156 91.7483 19.4381 92.2315 21.7456 93.0436C24.1662 93.8963 25.3369 94.7775 25.2577 95.6871C25.2464 95.9713 24.9862 96.2758 24.4772 96.6007C23.1538 97.4534 20.6314 98.2534 16.91 99.0005C13.0415 99.772 9.72167 100.097 6.95041 99.9751C6.62238 99.9588 6.28304 99.8776 5.93239 99.7314C5.54781 99.5771 5.27069 99.3944 5.10102 99.1832C4.50152 98.4523 4.11693 97.5752 3.94726 96.552C3.80022 95.5855 3.85677 94.5988 4.11693 93.5918ZM7.76482 92.1543C6.12469 92.333 5.20282 92.8162 4.99921 93.604C4.76168 94.5379 4.73905 95.48 4.93135 96.4301C5.13495 97.3884 5.51953 98.1234 6.0851 98.6351C6.42444 98.9355 6.81467 99.098 7.25581 99.1223C9.97052 99.236 13.1207 98.968 16.7064 98.3183C20.2242 97.6768 22.5939 96.9621 23.8155 96.1743C24.1888 95.9388 24.3811 95.7398 24.3924 95.5774C24.449 94.879 23.4083 94.1806 21.2705 93.4821C19.1327 92.7837 16.7403 92.3614 14.0935 92.2152C11.0394 92.0528 8.92988 92.0325 7.76482 92.1543Z" fill="#0D131A"/>
<path d="M13.7372 66.6454C14.9928 66.4667 16.3727 66.3693 17.8771 66.353L17.8602 66.8768C16.1748 66.9012 14.5969 67.0596 13.1264 67.3519L13.7372 66.6454Z" fill="#0D131A"/>
<path d="M11.2086 67.1449L11.8704 67.6565C8.94073 68.4524 6.65586 69.8208 5.01572 71.7618C3.77148 73.2155 3.0928 74.6489 2.97969 76.062C2.74215 78.7501 3.16633 80.9794 4.25221 82.7498C5.68874 85.0806 8.21681 86.5059 11.8364 87.0257C14.0534 87.3424 16.3157 87.5698 18.6232 87.7078C21.6659 87.8865 23.849 87.8215 25.1724 87.5129C28.4527 86.7495 31.2239 85.2593 33.4862 83.0422C35.6014 80.955 36.6025 78.941 36.4893 77C36.331 74.3931 35.1772 72.1597 33.0281 70.3C30.5849 68.1803 27.2593 66.9784 23.0516 66.6942L23.1025 66.1703C27.7061 66.4627 31.3258 67.7215 33.9613 69.9467C36.2462 71.8877 37.4734 74.2347 37.6431 76.9878C37.7675 79.0344 36.693 81.1865 34.4194 83.4442C32.0101 85.8481 29.0918 87.448 25.6645 88.2438C24.2958 88.5606 21.9487 88.6052 18.6232 88.3778C16.2139 88.2154 13.7989 87.9596 11.3783 87.6104C7.96231 87.1231 5.43424 85.9455 3.7941 84.0777C2.12003 82.161 1.42439 79.5785 1.70717 76.33C1.84291 74.7464 2.52724 73.183 3.76017 71.64C5.49079 69.4797 7.97362 67.9814 11.2086 67.1449Z" fill="#0D131A"/>
<path d="M19.0987 35.1188C20.7841 35.1106 22.2659 35.3258 23.544 35.7644C24.8109 36.2111 25.8119 36.8526 26.5472 37.6891C27.5313 38.8342 28.012 40.1661 27.9894 41.6848C27.9667 43.0248 27.6104 44.0683 26.9204 44.8155L26.2757 44.584C26.7847 43.8369 27.0392 42.8583 27.0392 41.6482C27.0392 40.2108 26.6037 38.9966 25.7328 38.0058C25.088 37.2587 24.1605 36.6983 22.9502 36.3248C21.7738 35.9593 20.3938 35.7806 18.8103 35.7888C15.8806 35.805 13.2451 36.2638 10.9037 37.1653C8.56224 38.0668 6.69588 39.3459 5.30459 41.0026C4.35445 42.1314 3.77191 43.3131 3.557 44.5475C3.34209 45.7738 3.51176 46.9433 4.06601 48.0559C3.87372 48.202 3.70405 48.3767 3.557 48.5797C2.83308 47.3209 2.52767 46.0296 2.64079 44.7059C2.7539 43.3009 3.32512 41.9812 4.35445 40.7468C5.80229 39.0251 7.86094 37.6607 10.5304 36.6537C13.1659 35.6548 16.022 35.1431 19.0987 35.1188Z" fill="#0D131A"/>
<path d="M3.86146 47.7149C5.0039 46.1718 7.24919 44.7872 10.5973 43.5609C14.2735 42.2128 17.6612 41.7377 20.7605 42.1356C22.4007 42.3467 23.8541 42.7934 25.121 43.4756C26.3766 44.1497 27.3041 44.974 27.9036 45.9485C28.39 46.7444 28.5766 47.5931 28.4635 48.4945C28.3617 49.3472 28.0167 50.1188 27.4285 50.8091L26.8007 50.5289C27.3097 49.936 27.5812 49.2376 27.6152 48.4336C27.6491 47.6296 27.4398 46.854 26.9874 46.1069C26.4444 45.2135 25.6244 44.4705 24.5272 43.8776C23.4413 43.2848 22.1405 42.8746 20.6248 42.6472C17.8761 42.2493 14.7373 42.696 11.2081 43.9872C7.95049 45.1811 5.78438 46.5008 4.70981 47.9463C4.06507 48.8234 3.62958 49.7411 3.40336 50.6994C3.1432 51.8445 3.23934 52.8719 3.6918 53.7814C4.099 54.5936 4.77202 55.2757 5.71086 55.828C5.56381 55.9498 5.46201 56.1122 5.40545 56.3153C4.76071 55.9579 4.24605 55.625 3.86146 55.3164C3.37508 54.9184 3.02443 54.5002 2.80952 54.0616C2.35707 53.152 2.22699 52.1328 2.41928 51.004C2.60026 49.8589 3.08099 48.7625 3.86146 47.7149Z" fill="#0D131A"/>
<path d="M10.343 66.8524C9.92449 66.3083 9.22319 65.1551 8.23911 63.3928L7.66223 62.3939C7.89977 62.5888 8.22214 62.7512 8.62935 62.8811L8.81598 63.2222C10.4335 66.1134 11.5872 67.4818 12.2772 67.3275C12.7636 67.2219 13.2557 66.7996 13.7534 66.0606C14.1153 65.5165 14.432 64.883 14.7035 64.1602L15.484 64.1724C15.1673 65.0008 14.8053 65.7357 14.3981 66.3773C13.7534 67.4006 13.103 67.9813 12.4469 68.1193C11.8022 68.2655 11.1009 67.8432 10.343 66.8524Z" fill="#0D131A"/>
<path d="M29.7197 58.0816C29.8215 57.6999 29.9176 57.4522 30.0081 57.3385C31.128 58.4024 31.7161 59.7627 31.7727 61.4194C31.8066 62.4752 31.6313 63.5675 31.2467 64.6963C31.0544 65.2567 30.8169 65.5612 30.5341 65.61C29.8781 65.7724 27.8194 64.81 24.3582 62.7229L25.0538 62.4061C25.7551 62.8203 26.6826 63.3035 27.8364 63.8558C29.1824 64.5136 30.0081 64.8385 30.3135 64.8303C30.4153 64.7654 30.5285 64.5502 30.6529 64.1847C30.7999 63.7462 30.8961 63.2264 30.9413 62.6254L30.9753 61.9798C30.9753 60.2906 30.5567 58.9912 29.7197 58.0816Z" fill="#0D131A"/>
<path d="M23.6279 63.1736L24.4932 62.8934C24.448 63.7136 24.1878 64.7572 23.7127 66.0241C23.1924 67.4372 22.6608 68.3387 22.1178 68.7285C21.8577 68.9153 21.5862 68.9924 21.3034 68.9599C20.5229 68.8543 19.5671 68.3508 18.436 67.4494C17.3049 66.5317 16.3434 65.484 15.5516 64.3065L16.3491 64.4405C17.0843 65.4719 17.9722 66.3611 19.0129 67.1083C19.963 67.7824 20.7605 68.164 21.4052 68.2534C21.4731 68.2615 21.5636 68.225 21.6767 68.1437C22.1065 67.827 22.5307 67.088 22.9492 65.9267C23.3225 64.8871 23.5487 63.9694 23.6279 63.1736Z" fill="#0D131A"/>
<path d="M28.4466 51.4059C29.5099 52.1531 30.1999 52.9165 30.5166 53.6961C30.8446 54.5163 30.8673 55.4625 30.5845 56.5345C30.2904 57.6146 29.7305 58.6704 28.9048 59.7018C27.9772 60.855 26.8404 61.8214 25.4944 62.601C24.1597 63.3807 22.7345 63.9045 21.2187 64.1725C18.9339 64.5785 16.649 64.6882 14.3641 64.5014C12.0227 64.3065 10.0658 63.8273 8.49355 63.0639C7.59996 62.6335 6.85342 62.0813 6.25392 61.4072C5.65442 60.7413 5.29246 60.0672 5.16804 59.385C4.78345 57.4441 5.12845 55.7021 6.20302 54.159C7.26628 52.5997 8.9969 51.341 11.3949 50.3826C13.4988 49.5462 15.6875 49.0548 17.9611 48.9086C20.2912 48.7706 22.5139 49.0102 24.6291 49.6274C26.0769 50.0497 27.3495 50.6425 28.4466 51.4059ZM28.0903 59.5678C28.8934 58.5688 29.4534 57.5578 29.7701 56.5345C30.0981 55.4787 30.1094 54.5813 29.804 53.8423C29.5212 53.1601 28.9048 52.5023 27.9546 51.8688C27.0045 51.2354 25.8451 50.7197 24.4764 50.3217C22.4404 49.7289 20.3251 49.4853 18.1308 49.5908C15.9364 49.6964 13.8551 50.1431 11.8869 50.9308C9.61337 51.8404 7.96758 53.0261 6.94956 54.4879C5.93155 55.9497 5.59786 57.5902 5.94851 59.4094C6.18605 60.6357 7.1362 61.6549 8.79896 62.467C10.3147 63.2061 12.0905 63.6812 14.1266 63.8923C16.1852 64.1035 18.2835 64.0222 20.4213 63.6487C21.9257 63.3807 23.3396 62.9096 24.663 62.2356C26.0996 61.4965 27.242 60.6073 28.0903 59.5678Z" fill="#0D131A"/>
<path d="M80.2813 45.6685C82.1363 44.4746 84.5174 43.7925 87.4244 43.6219C90.4671 43.4432 93.2044 43.9062 95.6363 45.0106C98.4189 46.2694 100.285 48.1779 101.235 50.7361C102.061 52.937 101.92 54.9307 100.811 56.7174C99.8498 58.2523 98.3793 59.3893 96.3999 60.1283L96.0605 59.6654C97.6893 59.0563 98.9279 58.1345 99.7763 56.9001C100.941 55.2353 101.1 53.2699 100.251 51.0041C99.3804 48.6652 97.7346 46.8785 95.314 45.6441C93.1875 44.5559 90.7725 44.032 88.0691 44.0726C85.4901 44.1051 83.3014 44.6208 81.5029 45.6197C79.5913 46.6836 78.6242 48.0358 78.6016 49.6763C78.6016 49.79 78.381 49.9808 77.9399 50.2488C77.5326 48.4703 78.3131 46.9435 80.2813 45.6685Z" fill="#0D131A"/>
<path d="M95.9244 56.498C96.3882 57.6268 96.5748 58.7151 96.4844 59.7627C96.4052 60.7616 96.0771 61.6265 95.5003 62.3574C94.98 63.0153 94.3013 63.5553 93.4642 63.9776C92.5254 64.4487 91.4452 64.737 90.2236 64.8425V64.2944C92.4293 63.7665 93.945 62.9665 94.7707 61.8945C95.8113 60.587 95.8792 58.8491 94.9743 56.6807C94.1373 54.6179 92.5933 52.8434 90.3423 51.3572C87.6955 49.6031 84.8394 48.9006 81.774 49.2498C79.4213 49.5178 77.685 50.3056 76.5652 51.6131C75.9657 52.3034 75.5868 53.0871 75.4284 53.9642C75.2927 54.7113 75.3266 55.3285 75.5302 55.8158L74.8346 55.962C74.5744 55.3691 74.4669 54.7073 74.5122 53.9763C74.5687 52.9693 74.9307 52.08 75.5981 51.3085C76.1863 50.6263 77.0346 50.0579 78.1431 49.6031C79.1837 49.1726 80.3545 48.8843 81.6553 48.7382C84.9355 48.3646 88.0122 49.0914 90.8853 50.9187C93.3624 52.4861 95.0422 54.3459 95.9244 56.498Z" fill="#0D131A"/>
<path d="M71.7127 58.8491L72.0012 59.5191C71.0736 60.1201 70.1914 61.1028 69.3543 62.4671C68.5625 63.7665 68.3137 64.4974 68.6078 64.6599L70.7626 64.5746L72.4932 64.2335L72.6459 64.5868L70.7456 64.9522C69.4335 65.1715 68.5173 65.2405 67.997 65.1593C67.7821 65.135 67.6407 65.0334 67.5728 64.8548C67.4144 64.3837 67.9291 63.3402 69.1168 61.724C70.2366 60.1972 71.1019 59.2389 71.7127 58.8491Z" fill="#0D131A"/>
<path d="M81.6217 69.9345L82.4192 70.0076L83.1997 70.0807C81.1863 70.503 79.4387 70.8035 77.9569 70.9822C76.3846 71.1608 75.4741 71.1527 75.2252 70.9578C75.0103 70.7873 75.0386 70.365 75.31 69.6909C75.5476 69.0899 75.8417 68.5702 76.1923 68.1316L76.6335 68.3265C76.2715 68.7813 75.9887 69.2442 75.7851 69.7153C75.5589 70.2188 75.525 70.5233 75.6833 70.6289L77.7872 70.5558C78.9749 70.4096 80.2531 70.2025 81.6217 69.9345Z" fill="#0D131A"/>
<path d="M72.154 64.477L72.4763 64.8181C71.7976 65.5409 71.266 66.2149 70.8814 66.8403C70.3611 67.6849 70.2537 68.2696 70.5591 68.5944C70.7061 68.7244 71.3509 68.7609 72.4933 68.7041C73.7375 68.6391 75.0044 68.4808 76.2939 68.229C76.3617 68.3427 76.5145 68.4401 76.752 68.5214C75.2815 68.83 73.8676 69.0492 72.5103 69.1792C70.8927 69.3254 69.9652 69.2685 69.7277 69.0086C69.0829 68.3265 69.8917 66.8159 72.154 64.477Z" fill="#0D131A"/>
<path d="M80.8921 55.2434C82.6453 55.5764 84.2289 56.1854 85.6428 57.0707C87.1133 57.9802 88.2727 59.105 89.121 60.445C90.4105 62.4753 90.846 64.3148 90.4275 65.9634C90.0316 67.5064 88.9796 68.6272 87.2716 69.3256C85.1112 70.2108 83.1487 70.5641 81.3841 70.3854C79.4046 70.1824 77.1876 69.2809 74.7331 67.681C73.5228 66.8933 72.5839 65.9228 71.9166 64.7696C71.2831 63.6651 70.9664 62.4997 70.9664 61.2734V60.9445C71.0117 58.5325 72.058 56.827 74.1053 55.8281C75.9377 54.9267 78.2 54.7318 80.8921 55.2434ZM85.1847 57.4727C83.8387 56.6281 82.3512 56.0555 80.7224 55.755C78.9465 55.4302 77.1537 55.6576 75.3439 56.4372C73.1495 57.3793 71.9562 58.8776 71.7639 60.9323C71.6847 61.85 71.86 62.7677 72.2898 63.6854C72.878 64.9523 73.9017 66.0609 75.3609 67.011C77.7815 68.5866 79.925 69.4434 81.7913 69.5814C83.16 69.687 84.8397 69.3662 86.8305 68.619C88.4933 68.0018 89.4717 66.9704 89.7658 65.5249C90.0599 64.0793 89.6244 62.4591 88.4593 60.6643C87.6223 59.3893 86.5308 58.3254 85.1847 57.4727Z" fill="#0D131A"/>
<path d="M56.9682 19.1242L56.6289 20.318C56.5045 20.7484 56.4027 20.9474 56.3235 20.9149C56.1312 20.8337 56.1312 20.3139 56.3235 19.3556C56.4027 19.0064 56.3235 18.7384 56.0859 18.5516C55.9389 18.4298 55.6618 18.312 55.2546 18.1983C54.1461 17.906 52.3419 17.8857 49.8421 18.1374C47.5459 18.3729 45.8379 18.6937 44.7181 19.0998C44.2883 19.2541 44.0338 19.3028 43.9546 19.246C43.8754 19.181 44.0112 19.0551 44.3618 18.8683C43.5813 18.5272 42.388 18.2511 40.7818 18.04L38.084 17.9547C37.4959 18.3283 37.2018 19.0632 37.2018 20.1596C37.2018 21.0529 37.3149 21.8935 37.5411 22.6813C37.7221 23.3228 37.9483 23.8466 38.2198 24.2527C38.6157 24.0497 38.8362 23.9806 38.8815 24.0456C38.9267 24.1106 38.8362 24.269 38.61 24.5207C38.2933 24.878 37.9257 25.4262 37.5072 26.1653C36.9529 27.1317 36.6136 27.9397 36.4892 28.5894C36.376 29.1336 36.3251 29.5681 36.3365 29.8929L36.4383 30.8918L36.2855 31.2329C36.2064 31.3791 36.1385 31.44 36.0819 31.4156C35.9915 31.2613 35.8953 30.9933 35.7935 30.6116C35.6691 30.1893 35.6069 29.8604 35.6069 29.6249C35.6069 28.7234 35.7992 27.7976 36.1837 26.8474C36.591 25.8323 37.1169 25.0526 37.7617 24.5085C37.4563 23.9482 37.1905 23.404 36.9642 22.8762C36.5344 21.861 36.3195 20.9677 36.3195 20.1962C36.3195 18.9049 36.6928 18.0197 37.4393 17.5405C37.8578 17.2806 38.8476 17.2522 40.4085 17.4552C42.0713 17.6664 43.5021 18.0481 44.7011 18.6003C46.3073 18.0643 48.185 17.707 50.3342 17.5283C52.5285 17.3415 54.2422 17.4146 55.4751 17.7476C55.9502 17.8694 56.3744 18.1171 56.7477 18.4907C57.6073 17.7923 59.4058 17.772 62.1431 18.4298C64.3036 18.9495 65.9324 19.5099 67.0296 20.1109L71.6107 20.2083C72.8549 20.3626 73.6976 20.59 74.1387 20.8905C74.3197 21.0205 74.4102 21.2641 74.4102 21.6214C74.4102 22.2224 74.184 22.998 73.7315 23.9482C73.3017 24.8659 72.787 25.6983 72.1875 26.4454C73.0472 28.0534 73.313 29.6736 72.985 31.306C72.7475 32.4511 72.4421 33.1576 72.0688 33.4256C71.9217 33.5393 71.7351 33.5231 71.5089 33.3769C71.2826 33.2307 71.2487 33.0318 71.4071 32.78C71.6899 32.3577 71.9048 31.6227 72.0518 30.5751C72.2328 29.2188 72.1197 27.9966 71.7125 26.9083C71.4184 27.0058 71.2657 26.9855 71.2544 26.8474C71.2431 26.7175 71.3279 26.5835 71.5089 26.4454C71.7125 26.2749 72.1536 25.5562 72.8323 24.2893C73.5562 22.9249 73.9182 22.0275 73.9182 21.5971C73.9182 21.3778 73.8673 21.2316 73.7655 21.1585C73.4601 20.9392 72.5834 20.7768 71.1356 20.6712C69.6764 20.5576 68.2908 20.5535 66.9787 20.6591C66.5828 20.6916 66.2604 20.6591 66.0116 20.5616C65.7401 20.456 65.8645 20.3464 66.3849 20.2327C66.2491 20.1271 65.7288 19.9403 64.8239 19.6723C63.8059 19.3637 62.7822 19.1079 61.7529 18.9049C58.8572 18.3283 57.2623 18.4014 56.9682 19.1242Z" fill="#0D131A"/>
<path d="M42.6147 19.9647L39.8151 22.6447C39.6455 22.1493 39.4928 21.6376 39.357 21.1097C39.0856 20.0621 39.0573 19.4733 39.2722 19.3434C39.6568 19.1079 40.7709 19.315 42.6147 19.9647Z" fill="#0D131A"/>
<path d="M39.3907 19.4409C39.3342 19.4815 39.3059 19.583 39.3059 19.7454C39.3059 20.2327 39.5038 21.0976 39.8997 22.3401L42.343 20.0256C40.6802 19.4409 39.6961 19.246 39.3907 19.4409ZM42.6993 19.855C42.9481 19.9687 42.9651 20.0703 42.7502 20.1596C42.6144 20.2246 42.1846 20.5981 41.4607 21.2803L40.1033 22.5838C39.9337 22.7543 39.8092 22.8193 39.7301 22.7787L39.6452 22.6691C38.9213 20.6306 38.7573 19.4896 39.1532 19.246C39.6056 18.9617 40.7877 19.1647 42.6993 19.855Z" fill="#0D131A"/>
<path d="M71.7977 21.7553C71.7977 22.0233 71.4923 22.8476 70.8815 24.2282L68.1667 21.7553L70.2197 21.5604C71.2604 21.5117 71.7864 21.5767 71.7977 21.7553Z" fill="#0D131A"/>
<path d="M68.4041 21.5604C70.2931 21.3412 71.4355 21.3371 71.8314 21.5483L71.9841 21.7554C71.9841 21.9584 71.8597 22.3969 71.6109 23.071C71.362 23.7369 71.1754 24.1349 71.0509 24.2648C70.9491 24.3785 70.853 24.4232 70.7625 24.3988L70.491 24.2161C69.1563 22.8598 68.3928 22.1167 68.2005 21.9868C67.8499 21.7513 67.9177 21.6092 68.4041 21.5604ZM71.6109 21.7675L70.3214 21.6823L68.4889 21.8406L70.7964 23.9481C71.3394 22.7055 71.6109 21.9787 71.6109 21.7675Z" fill="#0D131A"/>
<path d="M52.8621 23.1318C52.8961 22.9126 52.9526 22.8435 53.0318 22.9247C53.111 23.006 53.1449 23.1806 53.1336 23.4486C53.111 23.8709 52.9752 24.3419 52.7264 24.8617C52.4775 25.4139 52.2174 25.7469 51.9459 25.8606C51.6857 25.9743 51.533 25.9905 51.4878 25.9093C51.4426 25.8362 51.5048 25.7144 51.6744 25.5438C51.8328 25.3733 52.0647 24.9835 52.3701 24.3744C52.6642 23.7653 52.8282 23.3511 52.8621 23.1318Z" fill="#0D131A"/>
<path d="M57.7321 23.9725C57.6982 23.5665 57.7378 23.3309 57.8509 23.266C57.964 23.201 58.0545 23.3837 58.1224 23.8142C58.2581 24.7075 58.49 25.414 58.818 25.9338C59.0103 26.2343 59.0895 26.4292 59.0556 26.5185C59.0103 26.6079 58.835 26.5551 58.5296 26.3602C58.2468 26.1815 58.0432 25.8323 57.9188 25.3125L57.7321 23.9725Z" fill="#0D131A"/>
<path d="M52.76 26.1651C53.4726 25.9621 54.1004 25.8728 54.6433 25.8971C56.0233 25.9621 57.1261 26.2829 57.9519 26.8595C58.2233 27.0463 58.3308 27.1722 58.2742 27.2371C58.229 27.294 58.0933 27.2574 57.867 27.1275C57.6521 26.9975 57.2336 26.8595 56.6115 26.7133C55.9328 26.5509 55.3163 26.4534 54.7621 26.4209L53.1842 26.4818C52.7091 26.5387 52.3075 26.6158 51.9795 26.7133L51.4705 26.8108C51.4026 26.7945 51.4422 26.7377 51.5893 26.6402C51.7816 26.5021 52.1718 26.3438 52.76 26.1651Z" fill="#0D131A"/>
<path d="M47.6537 28.6137C47.3031 28.5 47.1164 28.3579 47.0938 28.1873C47.0712 28.0087 47.2805 27.9193 47.7216 27.9193C48.174 27.9193 48.6887 28.1346 49.2656 28.565C49.7859 28.9467 50.1309 29.3081 50.3006 29.6492C50.425 29.9172 50.408 30.0552 50.2497 30.0633C50.1139 30.0633 49.9725 29.9821 49.8255 29.8197C49.407 29.3487 48.6831 28.9467 47.6537 28.6137Z" fill="#0D131A"/>
<path d="M54.9158 29.4908C56.2505 29.6207 57.3024 29.9618 58.0716 30.5141C58.3544 30.7171 58.4901 30.8714 58.4788 30.977C58.4675 31.0744 58.2978 31.0379 57.9698 30.8674C56.9857 30.3232 55.8094 30.0187 54.4407 29.9537C53.1625 29.8887 51.9805 30.0309 50.8946 30.3801L50.3517 30.4044C50.3177 30.3151 50.4591 30.2014 50.7758 30.0634C52.054 29.5355 53.434 29.3446 54.9158 29.4908Z" fill="#0D131A"/>
<path d="M58.6484 30.3313C58.9651 29.9983 59.4571 29.7019 60.1245 29.442C60.8597 29.1577 61.4762 29.0562 61.9739 29.1374C62.1096 29.1618 62.2058 29.2714 62.2623 29.4663C62.3076 29.6694 62.2284 29.7709 62.0248 29.7709C61.6628 29.7709 61.2047 29.8318 60.6505 29.9536C59.9152 30.1079 59.3723 30.3231 59.0217 30.5993C58.7954 30.7779 58.6427 30.8185 58.5635 30.7211C58.4731 30.6236 58.5013 30.4937 58.6484 30.3313Z" fill="#0D131A"/>
<path d="M49.2995 26.3602L49.5031 26.0435L47.5519 24.801C46.2511 24.0538 45.0521 23.5259 43.9549 23.2173C43.6382 23.4853 43.3441 23.7899 43.0726 24.131C42.6315 24.6995 42.3544 25.2801 42.2413 25.873L45.7364 26.007L48.0948 26.2506L49.2995 26.3602ZM42.5806 23.9848C42.705 23.8224 43.0387 23.5381 43.5816 23.1321C43.1971 22.994 42.9708 22.8559 42.903 22.7179C42.8351 22.5636 43.1575 22.5757 43.8701 22.7544C45.0238 23.0468 46.2285 23.5422 47.484 24.2406C48.5586 24.8416 49.3165 25.3735 49.7576 25.8364C49.9951 26.0963 50.0743 26.2303 49.9951 26.2384L49.7915 26.1775L49.6049 26.409L49.7576 26.5308C49.7689 26.612 49.5597 26.6404 49.1298 26.6161L45.7534 26.3846L42.0037 26.2506C41.359 26.2831 41.031 26.2506 41.0196 26.1531C40.997 26.0557 41.2628 25.9623 41.8171 25.873C41.9189 25.0933 42.1734 24.4639 42.5806 23.9848Z" fill="#0D131A"/>
<path d="M66.3513 24.2405C67.177 24.1431 67.5899 24.1634 67.5899 24.3014C67.5785 24.4314 67.3071 24.5248 66.7754 24.5816C67.1374 24.7522 67.4767 25.0689 67.7935 25.5318C68.1894 26.084 68.3703 26.6363 68.3364 27.1885C68.7436 27.2373 68.9529 27.3104 68.9642 27.4078C68.9755 27.4971 68.7436 27.5418 68.2685 27.5418L64.1625 27.5784L60.1923 27.6758C59.8643 27.7083 59.7285 27.6799 59.7851 27.5905L59.9717 27.4565C59.8586 27.351 59.7851 27.2494 59.7511 27.152L59.4457 27.1642C59.3779 27.1236 59.4457 27.0261 59.6493 26.8718C60.2601 26.417 61.1707 25.9297 62.381 25.41C63.8741 24.7684 65.1975 24.3786 66.3513 24.2405ZM67.9122 27.2007C67.8331 26.754 67.6125 26.2668 67.2505 25.7389C66.9451 25.2841 66.6227 24.9268 66.2834 24.6669C65.141 24.7887 63.8458 25.1663 62.398 25.7998C61.4705 26.2059 60.69 26.6119 60.0565 27.018L60.2771 27.3713L64.417 27.2373L67.9122 27.2007Z" fill="#0D131A"/>
<path d="M45.7874 23.741L46.0928 23.9116C45.5046 24.2039 45.2105 24.61 45.2105 25.1298C45.2105 25.5196 45.3859 25.8485 45.7365 26.1165L45.1936 26.0556C44.956 25.7632 44.8373 25.4546 44.8373 25.1298C44.8373 24.5532 45.154 24.0902 45.7874 23.741Z" fill="#0D131A"/>
<path d="M49.0783 25.6171L49.3668 25.8363C49.2197 26.0719 49.0218 26.2668 48.7729 26.4211L48.3318 26.3358C48.6937 26.1571 48.9426 25.9176 49.0783 25.6171Z" fill="#0D131A"/>
<path d="M60.854 26.3724C60.854 26.8516 61.1255 27.2373 61.6685 27.5297L61.1595 27.554C60.7522 27.2536 60.5317 26.884 60.4977 26.4455L60.888 26.1775L60.854 26.3724Z" fill="#0D131A"/>
<path d="M65.5024 26.3723C65.5024 26.7865 65.3101 27.156 64.9255 27.4809H64.3995C64.8067 27.2373 65.0103 26.8637 65.0103 26.3602C65.0103 25.743 64.6653 25.3085 63.9753 25.0567L64.4165 24.9349C64.7445 25.0973 65.0047 25.3003 65.197 25.544C65.4006 25.8039 65.5024 26.08 65.5024 26.3723Z" fill="#0D131A"/>
<path d="M63.0253 26.2993C63.0253 26.5348 62.9744 26.7297 62.8726 26.884C62.7708 27.0464 62.6407 27.1277 62.4823 27.1277C62.3353 27.1277 62.2109 27.0464 62.1091 26.884C62.0073 26.7216 61.9564 26.5267 61.9564 26.2993C61.9564 26.0719 62.0073 25.881 62.1091 25.7267C62.2109 25.5643 62.3353 25.4831 62.4823 25.4831C62.6294 25.4831 62.7595 25.5643 62.8726 25.7267C62.9744 25.881 63.0253 26.0719 63.0253 26.2993Z" fill="#0D131A"/>
<path d="M48.3667 25.349C48.3667 25.5521 48.3101 25.7307 48.197 25.885C48.0952 26.0312 47.9652 26.1043 47.8068 26.1043C47.6598 26.1043 47.5297 26.0312 47.4166 25.885C47.3148 25.7389 47.2639 25.5602 47.2639 25.349C47.2639 25.1379 47.3148 24.9592 47.4166 24.813C47.5297 24.6669 47.6598 24.5938 47.8068 24.5938C47.9652 24.5938 48.0952 24.6669 48.197 24.813C48.3101 24.9592 48.3667 25.1379 48.3667 25.349Z" fill="#0D131A"/>
<path d="M64.5189 25.7996C64.5189 26.0595 64.3492 26.1895 64.0099 26.1895C63.8628 26.1895 63.744 26.157 63.6536 26.092C63.5518 26.0189 63.5009 25.9215 63.5009 25.7996C63.5009 25.6778 63.5518 25.5804 63.6536 25.5073C63.744 25.4261 63.8572 25.3855 63.9929 25.3855C64.1399 25.3855 64.2644 25.4261 64.3662 25.5073C64.468 25.5804 64.5189 25.6778 64.5189 25.7996Z" fill="white"/>
<path d="M47.0264 24.7885C47.0264 24.8941 46.9698 24.9875 46.8567 25.0687C46.7549 25.1418 46.6248 25.1783 46.4665 25.1783C46.3081 25.1783 46.178 25.1418 46.0762 25.0687C45.9631 24.9875 45.9066 24.8941 45.9066 24.7885C45.9066 24.6829 45.9631 24.5936 46.0762 24.5205C46.1893 24.4393 46.3194 24.3987 46.4665 24.3987C46.6135 24.3987 46.7436 24.4393 46.8567 24.5205C46.9698 24.5936 47.0264 24.6829 47.0264 24.7885Z" fill="white"/>
<path d="M67.4027 31.4643C67.3236 31.1963 67.3518 31.0704 67.4876 31.0867C67.6233 31.111 67.7986 31.2856 68.0135 31.6105L68.2511 32.317L68.3359 32.9627C68.2907 33.6205 67.9626 34.0753 67.3518 34.327C66.8315 34.5301 66.0228 34.6194 64.9256 34.595C64.2582 34.5788 63.5117 34.4651 62.6859 34.2539L60.2257 33.5718C59.3208 33.3525 58.3085 33.1413 57.1886 32.9383L54.3552 32.5119L50.6225 32.3292L46.6013 32.3658L43.3945 32.4754C41.811 32.4835 40.759 32.179 40.2387 31.5618C40.069 31.3425 39.9842 31.0948 39.9842 30.8187C39.9842 30.575 40.0577 30.3151 40.2048 30.039C40.3971 29.6898 40.6572 29.4259 40.9852 29.2472C41.3133 29.0604 41.5056 28.9833 41.5621 29.0157C41.596 29.0482 41.5282 29.1497 41.3585 29.3203C41.1775 29.5071 41.0305 29.8035 40.9174 30.2096C40.7929 30.6725 40.8156 31.0055 40.9852 31.2085C41.449 31.7688 42.3143 32.045 43.5812 32.0368L46.5843 32.0003L50.843 31.9394L54.8133 32.1343C56.2272 32.2805 58.0031 32.6175 60.1409 33.1454L62.6859 33.7788C63.5569 33.9738 64.2016 34.0712 64.6202 34.0712C65.197 34.0793 65.7343 34.0265 66.232 33.9128C66.7976 33.7829 67.2048 33.5921 67.4536 33.3403C67.7364 33.0479 67.7194 32.4226 67.4027 31.4643Z" fill="#0D131A"/>
<path d="M67.8609 31.5983C70.9602 31.6389 72.5212 32.6013 72.5438 34.4854C72.5438 35.1839 72.3289 35.9391 71.899 36.7513C71.5258 37.4497 71.0959 38.01 70.6095 38.4323C68.8676 39.9591 65.9719 40.9987 61.9225 41.5509C58.8571 41.9651 55.7522 42.0585 52.6076 41.8311C46.6805 41.4088 42.1164 40.1581 38.9153 38.0791C35.8613 36.1056 34.815 33.9373 35.7765 31.574C36.0932 30.7862 36.6531 30.1934 37.4562 29.7954C38.395 29.3244 39.5997 29.1417 41.0701 29.2472C41.1833 29.3934 41.0588 29.4909 40.6969 29.5396C39.8711 29.499 39.0907 29.6695 38.3554 30.0512C37.6202 30.4329 37.0603 30.9649 36.6757 31.6471C36.2006 32.4917 36.1893 33.4216 36.6418 34.4367C37.1169 35.4843 38.0161 36.4751 39.3395 37.4091C42.4954 39.6262 47.0029 40.9418 52.8621 41.356L55.0678 41.4413L59.7847 41.2829C64.5241 40.885 67.8835 39.813 69.863 38.0669C70.5191 37.4903 70.9998 36.7716 71.3052 35.9107C71.588 35.1067 71.6558 34.3961 71.5088 33.7789C71.3957 33.2672 71.0281 32.849 70.4059 32.5242C69.7951 32.2074 69.026 32.0206 68.0984 31.9638L67.9797 31.8054L67.8609 31.5983Z" fill="#0D131A"/>
</svg>
