<svg width="20" height="18" viewBox="0 0 20 18" fill="none" xmlns="http://www.w3.org/2000/svg">
<path fill-rule="evenodd" clip-rule="evenodd" d="M2.96297 2.96297H10.3704C11.1886 2.96297 11.8519 2.29968 11.8519 1.48148C11.8519 0.66329 11.1886 0 10.3704 0H2.96297C1.32657 0 0 1.32657 0 2.96297V14.8148C0 16.4513 1.32657 17.7778 2.96297 17.7778H14.8148C16.4513 17.7778 17.7778 16.4513 17.7778 14.8148V11.8519C17.7778 11.0337 17.1145 10.3704 16.2963 10.3704C15.4781 10.3704 14.8148 11.0337 14.8148 11.8519V14.8148H2.96297V2.96297ZM19.5661 0.433912C18.9876 -0.144637 18.0495 -0.144637 17.471 0.433912L9.62965 8.27526L8.45499 7.10059C7.87643 6.52204 6.93841 6.52204 6.35985 7.10059C5.7813 7.67915 5.7813 8.61717 6.35985 9.19573L8.58208 11.418C8.85991 11.6958 9.23673 11.8519 9.62965 11.8519C10.0226 11.8519 10.3994 11.6958 10.6772 11.418L19.5661 2.52906C20.1446 1.95049 20.1446 1.01248 19.5661 0.433912Z" fill="#2D4991"/>
</svg>
