<svg width="112" height="109" viewBox="0 0 112 109" fill="none" xmlns="http://www.w3.org/2000/svg">
<path fill-rule="evenodd" clip-rule="evenodd" d="M111.996 54.6597C112.325 82.0348 89.3741 108.693 56.464 108.997C25.4723 109.284 -0.0114774 85.1167 3.87801e-06 54.6328C0.0120071 23.1679 25.9712 0.382852 55.2099 0.00491354C86.3154 -0.397916 112.058 24.0187 111.996 54.6597Z" fill="#231F20"/>
<path fill-rule="evenodd" clip-rule="evenodd" d="M22.1569 13.0023C24.0414 11.4093 26.1237 10.089 28.2618 8.8531C34.6652 5.15144 41.5629 2.75682 48.9537 1.91661C65.2749 0.0619729 79.7638 4.29397 92.1369 14.86C101.522 22.8749 107.261 32.9954 109.609 44.93C110.039 47.1168 110.267 49.3316 110.416 51.5525C110.467 52.3033 110.439 52.3165 109.727 52.0351C105.839 50.4995 102.042 48.7561 98.1218 47.2941C94.9864 46.1247 91.7831 45.1748 88.488 44.5408C87.9014 44.4281 87.6582 44.1842 87.51 43.6219C85.4955 35.9656 78.3823 30.233 70.3214 29.7347C62.0053 29.2201 54.7637 33.3891 51.2432 40.7452C51.0005 41.2527 50.7176 41.4157 50.1477 41.4325C40.5384 41.716 31.1253 43.2084 21.8907 45.8027C15.3573 47.638 8.97894 49.9026 2.65222 52.3124C2.32396 52.4374 1.99153 52.5517 1.60012 52.6924C1.50409 52.027 1.6069 51.4189 1.65283 50.8093C2.55202 38.8692 7.09288 28.414 15.1694 19.4013C15.5916 18.9299 16.0467 18.4865 16.4867 18.0298C16.6834 18.3554 16.4146 18.5571 16.2612 18.776C14.9054 20.7094 13.9018 22.7865 13.5219 25.1171C13.0694 27.8928 13.597 30.4205 15.6574 32.4915C16.7784 33.6187 18.1838 34.3162 19.7646 34.6423C22.7753 35.2636 25.6801 34.8409 28.5097 33.7559C31.1707 32.7354 33.5317 31.2256 35.5425 29.276C38.2354 26.665 40.243 23.6308 40.754 19.8606C41.4543 14.6949 38.3721 11.1395 33.5609 10.4746C29.865 9.96406 26.4853 10.9485 23.2732 12.6569C22.935 12.8382 22.6459 13.2512 22.1569 13.0023Z" fill="#F13E2D"/>
<path fill-rule="evenodd" clip-rule="evenodd" d="M20.21 60.121C25.3521 58.7678 30.5594 57.7279 35.8293 56.9721C39.3567 56.4661 42.8997 56.1171 46.4537 55.8657C47.8236 55.7686 49.1987 55.7422 50.5692 55.6462C51.0018 55.6157 51.1323 55.8372 51.2826 56.1486C53.7172 61.1985 57.6156 64.7122 63.0984 66.3535C69.7028 68.33 75.7529 67.0916 81.1486 62.8966C82.5942 61.7735 83.8258 60.4421 84.8325 58.9288C85.0882 58.5448 85.3356 58.4376 85.8116 58.5346C92.5798 59.9072 99.1612 61.8868 105.629 64.2438C106.626 64.607 107.605 65.019 108.618 65.3339C109.148 65.4985 109.179 65.7667 109.071 66.1975C108.522 68.3793 107.893 70.5372 107.08 72.6407C105.954 75.555 104.648 78.3865 102.969 81.0448C102.808 81.2998 102.611 81.5335 102.431 81.7768C101.862 82.5972 101.007 83.1341 100.272 83.7813C98.1785 85.6227 95.9401 87.2894 93.5536 88.7646C89.3029 91.3934 84.737 93.312 79.8815 94.5952C76.9365 95.3734 73.9378 95.8733 70.9015 96.0755C62.7174 96.622 54.8533 95.3201 47.3388 92.0761C43.8093 90.5522 40.5064 88.6528 37.4565 86.3618C34.3743 84.0454 31.5948 81.4177 29.1592 78.4394C24.8798 73.2066 21.8419 67.3786 20.0582 60.9252C19.9762 60.6331 19.8411 60.3313 20.21 60.121Z" fill="#FEFEFE"/>
<path fill-rule="evenodd" clip-rule="evenodd" d="M20.2102 60.1212C20.0526 60.3198 20.121 60.521 20.1789 60.7359C21.3792 65.197 23.21 69.4041 25.68 73.3303C28.6938 78.1205 32.4545 82.2794 36.9938 85.7748C43.1123 90.4863 49.999 93.5662 57.6225 95.0942C60.0999 95.5905 62.6122 95.8511 65.1464 95.9629C71.6167 96.2494 77.8849 95.3005 83.9659 93.1659C87.6748 91.864 91.1584 90.1282 94.442 87.9932C97.0331 86.3082 99.3696 84.3276 101.699 82.3302C101.93 82.1316 102.186 81.9604 102.43 81.7765C101.987 82.8915 101.209 83.8094 100.528 84.7776C98.365 87.8514 95.8067 90.6011 93.0157 93.138C89.8495 96.0157 86.3613 98.4759 82.5771 100.541C78.1808 102.94 73.5335 104.696 68.6336 105.828C65.7268 106.499 62.7876 106.932 59.8024 107.135C58.5207 107.222 57.2353 107.25 55.9578 107.282C54.1928 107.327 52.4152 107.195 50.6539 107.03C45.7728 106.574 41.0362 105.48 36.4573 103.769C30.5794 101.573 25.239 98.4967 20.4685 94.4872C11.5178 86.963 5.64931 77.611 2.83378 66.4319C2.68713 65.8487 2.85622 65.6481 3.38854 65.451C8.64019 63.5074 13.9576 61.763 19.3825 60.3336C19.6581 60.2609 19.9341 60.1918 20.2102 60.1212Z" fill="#A09D9D"/>
<path fill-rule="evenodd" clip-rule="evenodd" d="M5.54662 52.3345C8.16957 51.3602 10.7998 50.4062 13.4541 49.5127C16.4601 48.5008 19.476 47.5173 22.5499 46.7315C26.3763 45.7536 30.2126 44.8072 34.1189 44.1606C37.1484 43.6592 40.1852 43.2249 43.2496 42.9754C45.1681 42.8195 47.0833 42.6453 49.0091 42.5772C49.7814 42.5503 50.5554 42.4685 51.3304 42.4827C51.6962 42.4893 51.8209 42.3034 51.9378 42.0143C53.4278 38.3355 55.9234 35.4614 59.3642 33.3817C61.5936 32.034 64.0282 31.2152 66.6454 30.9195C71.5463 30.3663 75.9786 31.5337 79.8932 34.4292C83.3731 37.0031 85.6021 40.4086 86.5727 44.5629C86.7079 45.14 86.9725 45.365 87.5382 45.4696C93.2784 46.5308 98.6777 48.5775 103.992 50.873C106.058 51.765 108.148 52.6058 110.239 53.4404C110.626 53.5948 110.821 53.8036 110.834 54.1912C110.951 57.5632 110.852 60.9174 110.039 64.2208C109.916 64.7232 109.637 64.617 109.31 64.49C105.787 63.1286 102.22 61.8851 98.6104 60.7609C94.1817 59.3822 89.6925 58.2266 85.1355 57.3203C84.6789 57.2294 84.5338 57.4473 84.36 57.7242C82.9107 60.0238 81.0304 61.9196 78.6945 63.3699C76.1691 64.9385 73.4204 65.8575 70.4165 66.1084C66.1152 66.4681 62.2063 65.4465 58.6403 63.124C55.5628 61.1195 53.3881 58.3886 51.978 55.0791C51.7781 54.6087 51.5219 54.5239 51.0835 54.5508C48.8749 54.6854 46.6606 54.7566 44.4578 54.9521C41.5541 55.2092 38.6561 55.517 35.7664 55.9234C31.8023 56.4806 27.8793 57.2304 23.9757 58.0803C22.5139 58.3988 21.0996 58.922 19.6415 59.2603C17.8128 59.685 16.0301 60.2555 14.2249 60.7543C13.9071 60.8422 13.6258 61.0494 13.2761 61.0296C12.6066 61.2607 12.0064 60.9808 11.4282 60.7385C7.92638 59.2715 5.90097 56.6864 5.33473 53.0172C5.29664 52.7536 5.24915 52.4955 5.54662 52.3345Z" fill="#58585A"/>
<path fill-rule="evenodd" clip-rule="evenodd" d="M22.1566 13.0023C22.4369 13.0546 22.6023 12.8382 22.8038 12.7249C25.744 11.0709 28.8669 10.0814 32.3056 10.1677C36.3773 10.2703 39.6134 12.4582 40.6561 15.8627C41.2589 17.8311 41.141 19.8036 40.5351 21.7416C39.1088 26.3017 36.0678 29.6473 32.0253 32.1796C28.8534 34.1663 25.3985 35.2839 21.57 35.0863C17.2045 34.8612 13.9767 32.2278 13.3223 28.3113C12.9549 26.1123 13.4011 24.0102 14.2565 21.9758C14.7627 20.7703 15.4291 19.6497 16.1973 18.584C16.3184 18.4168 16.535 18.2863 16.487 18.0308C17.0323 17.4654 17.5782 16.9005 18.1225 16.3346C19.3359 15.0728 20.7705 14.0655 22.1566 13.0023Z" fill="#FEFEFE"/>
<path fill-rule="evenodd" clip-rule="evenodd" d="M5.5466 52.3343C5.30444 52.9667 5.56225 53.5834 5.72612 54.1533C6.73595 57.6742 9.07501 59.9535 12.6848 60.9811C12.8717 61.0339 13.0804 61.0152 13.2787 61.0294C11.4871 61.6191 9.69134 62.1967 7.90496 62.8002C6.17754 63.3834 4.43969 63.9411 2.76499 64.6604C2.35845 64.8357 2.26347 64.6553 2.17475 64.3358C1.87571 63.2569 1.73794 62.1505 1.54432 61.0527C1.16752 58.9131 1.31521 56.7562 1.27451 54.6054C1.26564 54.1259 1.42481 53.8678 1.90963 53.6982C3.13239 53.271 4.29879 52.7 5.5466 52.3343Z" fill="#363638"/>
<path fill-rule="evenodd" clip-rule="evenodd" d="M69.3583 35.0757C76.6427 34.9894 82.7909 40.8733 82.7158 48.1943C82.6432 55.3295 76.7951 61.1443 69.2633 61.126C61.7577 61.1077 55.9299 55.1801 55.9335 48.0729C55.9367 40.9414 61.919 34.968 69.3583 35.0757Z" fill="#231F20"/>
<path fill-rule="evenodd" clip-rule="evenodd" d="M57.0698 47.996C57.1527 41.3953 62.6961 36.0788 69.4142 36.157C76.339 36.2378 81.6523 41.6366 81.5568 48.4964C81.467 54.9158 75.8005 60.0936 68.967 59.9991C62.4247 59.9087 56.9889 54.4245 57.0698 47.996Z" fill="#FEFEFE"/>
</svg>
